<svg xmlns="http://www.w3.org/2000/svg" xmlns:xlink="http://www.w3.org/1999/xlink" fill="none" version="1.1" width="60" height="60" viewBox="0 0 60 60"><defs><linearGradient x1="-0.01066666655242443" y1="-0.010760869830846786" x2="1.0360889434814453" y2="1.0188043117523193" id="master_svg0_0_9383"><stop offset="0%" stop-color="#80FFFF" stop-opacity="1"/><stop offset="100%" stop-color="#02A7F0" stop-opacity="1"/></linearGradient><linearGradient x1="-0.0033885750453919172" y1="-0.02342807874083519" x2="1.0149519443511963" y2="1.0349698066711426" id="master_svg1_0_9385"><stop offset="0%" stop-color="#80FFFF" stop-opacity="1"/><stop offset="100%" stop-color="#02A7F0" stop-opacity="1"/></linearGradient><linearGradient x1="-0.0017606960609555244" y1="-0.0077946181409060955" x2="1.000326156616211" y2="1.0057531595230103" id="master_svg2_0_9387"><stop offset="0%" stop-color="#80FFFF" stop-opacity="1"/><stop offset="100%" stop-color="#02A7F0" stop-opacity="1"/></linearGradient><linearGradient x1="-0.0018621005583554506" y1="-0.0030724636744707823" x2="1.0060060024261475" y2="1.0060869455337524" id="master_svg3_0_9389"><stop offset="0%" stop-color="#80FFFF" stop-opacity="1"/><stop offset="100%" stop-color="#02A7F0" stop-opacity="1"/></linearGradient><linearGradient x1="-0.0038847343530505896" y1="-0.00699611334130168" x2="1.0045064687728882" y2="1.0022209882736206" id="master_svg4_0_9391"><stop offset="0%" stop-color="#80FFFF" stop-opacity="1"/><stop offset="100%" stop-color="#02A7F0" stop-opacity="1"/></linearGradient><linearGradient x1="-0.0040858737193048" y1="-0.0027755957562476397" x2="1.0023200511932373" y2="1.002723217010498" id="master_svg5_0_9393"><stop offset="0%" stop-color="#80FFFF" stop-opacity="1"/><stop offset="100%" stop-color="#02A7F0" stop-opacity="1"/></linearGradient><linearGradient x1="-0.006242908537387848" y1="-0.004064314998686314" x2="1.0044044256210327" y2="1.0005221366882324" id="master_svg6_0_9395"><stop offset="0%" stop-color="#80FFFF" stop-opacity="1"/><stop offset="100%" stop-color="#02A7F0" stop-opacity="1"/></linearGradient><linearGradient x1="-0.0849246233701706" y1="-0.014805750921368599" x2="1.072864294052124" y2="1.0032426118850708" id="master_svg7_0_9397"><stop offset="0%" stop-color="#80FFFF" stop-opacity="1"/><stop offset="100%" stop-color="#02A7F0" stop-opacity="1"/></linearGradient><linearGradient x1="-0.011935128830373287" y1="-0.12031924724578857" x2="1.0065292119979858" y2="1.114218831062317" id="master_svg8_0_9399"><stop offset="0%" stop-color="#80FFFF" stop-opacity="1"/><stop offset="100%" stop-color="#02A7F0" stop-opacity="1"/></linearGradient><linearGradient x1="-0.0525510199368" y1="-0.004081632476300001" x2="1.1229591369628906" y2="1.040816307067871" id="master_svg9_0_9401"><stop offset="0%" stop-color="#80FFFF" stop-opacity="1"/><stop offset="100%" stop-color="#02A7F0" stop-opacity="1"/></linearGradient><linearGradient x1="-0.044308941811323166" y1="-0.007723577320575714" x2="1.100406527519226" y2="1.0329267978668213" id="master_svga_0_9403"><stop offset="0%" stop-color="#80FFFF" stop-opacity="1"/><stop offset="100%" stop-color="#02A7F0" stop-opacity="1"/></linearGradient></defs><g style="mix-blend-mode:passthrough"><g style="mix-blend-mode:passthrough"><rect x="0" y="0" width="60" height="60" rx="0" fill="#D8D8D8" fill-opacity="0"/></g><g><g><g><g><path d="M13.36377239227295,37.724692062377926C13.36377239227295,37.724692062377926,13.36377239227295,25.50819206237793,13.36377239227295,25.50819206237793C13.36377239227295,25.50819206237793,20.873682392272947,25.50819206237793,20.873682392272947,25.50819206237793C20.873682392272947,25.50819206237793,20.873682392272947,37.724692062377926,20.873682392272947,37.724692062377926C20.873682392272947,37.724692062377926,13.36377239227295,37.724692062377926,13.36377239227295,37.724692062377926C13.36377239227295,37.724692062377926,13.36377239227295,37.724692062377926,13.36377239227295,37.724692062377926Z" fill="url(#master_svg0_0_9383)" fill-opacity="1"/></g></g></g><g><g><g><path d="M20.113012845230102,42.80785700378418C20.1196128452301,43.86341700378418,19.2367128452301,44.72705700378418,18.1577128452301,44.72705700378418C18.1577128452301,44.72705700378418,2.3583128452301025,44.72705700378418,2.3583128452301025,44.72705700378418C2.3583128452301025,44.72705700378418,2.3583128452301025,37.29975700378418,2.3583128452301025,37.29975700378418C2.3583128452301025,37.29975700378418,20.113012845230102,37.29975700378418,20.113012845230102,37.29975700378418C20.113012845230102,37.29975700378418,20.113012845230102,42.80785700378418,20.113012845230102,42.80785700378418C20.113012845230102,42.80785700378418,20.113012845230102,42.80785700378418,20.113012845230102,42.80785700378418Z" fill="url(#master_svg1_0_9385)" fill-opacity="1"/></g></g></g><g><g><g><path d="M51.88045138092041,30.39450438108444C51.76775138092041,31.039304381084442,51.22405138092041,31.50280438108444,50.57435138092041,31.50280438108444C50.49475138092041,31.50280438108444,50.42185138092041,31.496104381084443,50.34225138092041,31.482704381084442C50.34225138092041,31.482704381084442,10.52935138092041,24.443004381084442,10.52935138092041,24.443004381084442C10.177964380920411,24.38260438108444,9.87298538092041,24.18780438108444,9.67408638092041,23.89220438108444C9.47518788092041,23.596704381084443,9.38899828092041,23.24070438108444,9.45529798092041,22.891404381084442C9.45529798092041,22.891404381084442,11.71611138092041,9.786104381084442,11.71611138092041,9.786104381084442C11.71611138092041,9.786104381084442,54.14785138092041,17.295934381084443,54.14785138092041,17.295934381084443C54.14785138092041,17.295934381084443,51.88045138092041,30.39450438108444,51.88045138092041,30.39450438108444C51.88045138092041,30.39450438108444,51.88045138092041,30.39450438108444,51.88045138092041,30.39450438108444Z" fill="url(#master_svg2_0_9387)" fill-opacity="1"/></g></g></g><g><g><g><path d="M9.980417178649903,22.645699999999998C9.980417178649903,22.645699999999998,12.122757178649902,10.5191,12.122757178649902,10.5191C12.122757178649902,10.5191,53.1378471786499,17.61043,53.1378471786499,17.61043C53.1378471786499,17.61043,50.995447178649904,29.7371,50.995447178649904,29.7371C50.9425471786499,30.0514,50.6648471786499,30.2805,50.3474471786499,30.2805C50.3078471786499,30.2805,50.268147178649905,30.274,50.2284471786499,30.2674C50.2284471786499,30.2674,10.522617178649902,23.4053,10.522617178649902,23.4053C10.284577178649903,23.366,10.152337178649903,23.221899999999998,10.092827178649902,23.1368C10.033317178649902,23.0517,9.940747178649902,22.881500000000003,9.980417178649903,22.645699999999998C9.980417178649903,22.645699999999998,9.980417178649903,22.645699999999998,9.980417178649903,22.645699999999998ZM54.6652471786499,16.549680000000002C54.6652471786499,16.549680000000002,11.044977178649901,9,11.044977178649901,9C11.044977178649901,9,8.677830478649902,22.416600000000003,8.677830478649902,22.416600000000003C8.486078178649903,23.4839,9.213413178649903,24.5053,10.291187178649903,24.6887C10.291187178649903,24.6887,50.0036471786499,31.5574,50.0036471786499,31.5574C50.1160471786499,31.577,50.2350471786499,31.5901,50.3474471786499,31.5901C51.2930471786499,31.5901,52.1327471786499,30.9157,52.2980471786499,29.9662C52.2980471786499,29.9662,54.6652471786499,16.549680000000002,54.6652471786499,16.549680000000002C54.6652471786499,16.549680000000002,54.6652471786499,16.549680000000002,54.6652471786499,16.549680000000002Z" fill="url(#master_svg3_0_9389)" fill-opacity="1"/></g></g></g><g><g><g><path d="M45.5447471786499,32.820004381084445C45.4319471786499,33.46350438108444,44.8812471786499,33.93280438108444,44.237547178649905,33.93280438108444C44.1578471786499,33.93280438108444,44.0848471786499,33.92610438108444,44.0052471786499,33.91270438108444C44.0052471786499,33.91270438108444,9.744227178649902,27.86590438108444,9.744227178649902,27.86590438108444C9.392524178649902,27.805604381084443,9.087274178649903,27.61120438108444,8.888197178649902,27.316204381084443C8.689121078649903,27.02130438108444,8.602854678649903,26.66600438108444,8.669213378649902,26.317404381084444C8.669213378649902,26.317404381084444,11.529277178649902,9.786104381084442,11.529277178649902,9.786104381084442C11.529277178649902,9.786104381084442,48.4048471786499,16.28867438108444,48.4048471786499,16.28867438108444C48.4048471786499,16.28867438108444,45.5447471786499,32.820004381084445,45.5447471786499,32.820004381084445C45.5447471786499,32.820004381084445,45.5447471786499,32.820004381084445,45.5447471786499,32.820004381084445Z" fill="url(#master_svg4_0_9391)" fill-opacity="1"/></g></g></g><g><g><g><path d="M9.212652976379395,26.5578C9.212652976379395,26.5578,11.967372976379394,10.5673,11.967372976379394,10.5673C11.967372976379394,10.5673,47.71864297637939,16.890520000000002,47.71864297637939,16.890520000000002C47.71864297637939,16.890520000000002,44.9572429763794,32.887699999999995,44.9572429763794,32.887699999999995C44.903842976379394,33.212,44.6237429763794,33.448499999999996,44.3035429763794,33.448499999999996C44.2635429763794,33.448499999999996,44.22354297637939,33.4417,44.18354297637939,33.4349C44.18354297637939,33.4349,9.752922976379395,27.3414,9.752922976379395,27.3414C9.392742976379395,27.2806,9.145952976379395,26.9293,9.212652976379395,26.5578C9.212652976379395,26.5578,9.212652976379395,26.5578,9.212652976379395,26.5578ZM49.25934297637939,15.78936C49.25934297637939,15.78936,10.880152976379394,9,10.880152976379394,9C10.880152976379394,9,7.891994776379395,26.3281,7.891994776379395,26.3281C7.698564976379394,27.4292,8.432264976379395,28.4831,9.519472976379394,28.6723C9.519472976379394,28.6723,43.956742976379395,34.7658,43.956742976379395,34.7658C44.070142976379394,34.786100000000005,44.19014297637939,34.7996,44.3035429763794,34.7996C45.25734297637939,34.7996,46.104442976379396,34.1038,46.2712429763794,33.1242C46.2712429763794,33.1242,49.25934297637939,15.78936,49.25934297637939,15.78936C49.25934297637939,15.78936,49.25934297637939,15.78936,49.25934297637939,15.78936Z" fill="url(#master_svg5_0_9393)" fill-opacity="1"/></g></g></g><g><g><g><path d="M59.65905558319092,19.3834C58.676455583190915,24.8976,53.33545558319092,28.589,47.72715558319092,27.6283C47.72715558319092,27.6283,18.756265583190917,22.647199999999998,18.756265583190917,22.647199999999998C13.147915583190919,21.6799,9.397879583190917,16.42895,10.373824583190919,10.90823C10.373824583190919,10.90823,10.714737583190917,9,10.714737583190917,9C10.714737583190917,9,59.99995558319092,17.475189999999998,59.99995558319092,17.475189999999998C59.99995558319092,17.475189999999998,59.65905558319092,19.3834,59.65905558319092,19.3834C59.65905558319092,19.3834,59.65905558319092,19.3834,59.65905558319092,19.3834Z" fill="url(#master_svg6_0_9395)" fill-opacity="1"/></g></g></g><g><g><g><path d="M0,49.95491307373047C0,50.56341307373047,0.504963,51.05941307373047,1.13958,51.05941307373047C1.13958,51.05941307373047,1.5763,51.05941307373047,1.5763,51.05941307373047C2.20409,51.05941307373047,2.71588,50.56341307373047,2.71588,49.95491307373047C2.71588,49.95491307373047,2.71588,30.54322307373047,2.71588,30.54322307373047C2.71588,29.93475207373047,2.20409,29.43871307373047,1.5763,29.43871307373047C1.5763,29.43871307373047,1.13958,29.43871307373047,1.13958,29.43871307373047C0.511787,29.43871307373047,0,29.93475207373047,0,30.54322307373047C0,30.54322307373047,0,49.95491307373047,0,49.95491307373047C0,49.95491307373047,0,49.95491307373047,0,49.95491307373047Z" fill="url(#master_svg7_0_9397)" fill-opacity="1"/></g></g></g><g><g><g><path d="M17.294294357299805,14.612481726608276C17.294294357299805,14.612481726608276,17.596615357299804,12.930521726608276,17.596615357299804,12.930521726608276C17.596615357299804,12.930521726608276,22.697264357299805,13.795727726608277,22.697264357299805,13.795727726608277C22.697264357299805,13.795727726608277,22.394944357299806,15.477561726608275,22.394944357299806,15.477561726608275C22.394944357299806,15.477561726608275,17.294294357299805,14.612481726608276,17.294294357299805,14.612481726608276C17.294294357299805,14.612481726608276,17.294294357299805,14.612481726608276,17.294294357299805,14.612481726608276Z" fill="url(#master_svg8_0_9399)" fill-opacity="1"/></g></g></g><g><g><g><path d="M18.39702595275879,40.786561517944335C18.39702595275879,41.408381517944335,17.79652595275879,41.915051517944335,17.05955595275879,41.915051517944335C16.32258195275879,41.915051517944335,15.722085952758789,41.408381517944335,15.722085952758789,40.786561517944335C15.722085952758789,40.16474051794434,16.32258195275879,39.658071517944336,17.05955595275879,39.658071517944336C17.79652595275879,39.658071517944336,18.39702595275879,40.16474051794434,18.39702595275879,40.786561517944335C18.39702595275879,40.786561517944335,18.39702595275879,40.786561517944335,18.39702595275879,40.786561517944335Z" fill="url(#master_svg9_0_9401)" fill-opacity="1"/></g></g></g><g><g><g><path d="M16.419976952758788,41.168861517944336C16.419976952758788,40.671411517944335,16.88058595275879,40.27221551794434,17.438895952758788,40.27221551794434C17.99720595275879,40.27221551794434,18.45781595275879,40.671411517944335,18.45781595275879,41.168861517944336C18.45781595275879,41.66632151794433,18.00418595275879,42.06551151794434,17.438895952758788,42.06551151794434C16.87360595275879,42.06551151794434,16.419976952758788,41.66632151794433,16.419976952758788,41.168861517944336C16.419976952758788,41.168861517944336,16.419976952758788,41.168861517944336,16.419976952758788,41.168861517944336ZM19.15570595275879,41.168861517944336C19.15570595275879,40.32748851794434,18.388025952758788,39.658071517944336,17.438895952758788,39.658071517944336C16.489765952758788,39.658071517944336,15.722085952758789,40.33362951794434,15.722085952758789,41.168861517944336C15.722085952758789,42.004101517944335,16.489765952758788,42.67966151794434,17.438895952758788,42.67966151794434C18.388025952758788,42.67966151794434,19.15570595275879,42.004101517944335,19.15570595275879,41.168861517944336C19.15570595275879,41.168861517944336,19.15570595275879,41.168861517944336,19.15570595275879,41.168861517944336Z" fill="url(#master_svga_0_9403)" fill-opacity="1"/></g></g></g></g></g></svg>