<svg xmlns="http://www.w3.org/2000/svg" xmlns:xlink="http://www.w3.org/1999/xlink" fill="none" version="1.1" width="60" height="60" viewBox="0 0 60 60"><defs><linearGradient x1="-0.002064750762656331" y1="-0.010098510421812534" x2="1.0096629858016968" y2="1.0162094831466675" id="master_svg0_0_9423"><stop offset="0%" stop-color="#80FFFF" stop-opacity="1"/><stop offset="100%" stop-color="#02A7F0" stop-opacity="1"/></linearGradient><linearGradient x1="-0.0020676536951214075" y1="-0.01191849447786808" x2="1.011082649230957" y2="1.0053825378417969" id="master_svg1_0_9425"><stop offset="0%" stop-color="#80FFFF" stop-opacity="1"/><stop offset="100%" stop-color="#02A7F0" stop-opacity="1"/></linearGradient><linearGradient x1="-0.005266799591481686" y1="-0.002260688692331314" x2="1.0039844512939453" y2="1" id="master_svg2_0_9427"><stop offset="0%" stop-color="#80FFFF" stop-opacity="1"/><stop offset="100%" stop-color="#02A7F0" stop-opacity="1"/></linearGradient><linearGradient x1="-0.022861303761601448" y1="-0.022727273404598236" x2="1.0186103582382202" y2="1.0018181800842285" id="master_svg3_0_9429"><stop offset="0%" stop-color="#80FFFF" stop-opacity="1"/><stop offset="100%" stop-color="#02A7F0" stop-opacity="1"/></linearGradient><linearGradient x1="-0.0052628587000072" y1="-0.00882480014115572" x2="1.0039844512939453" y2="1.0057945251464844" id="master_svg4_0_9431"><stop offset="0%" stop-color="#80FFFF" stop-opacity="1"/><stop offset="100%" stop-color="#02A7F0" stop-opacity="1"/></linearGradient><linearGradient x1="-0.00823875330388546" y1="-0.008825080469250679" x2="1.0079689025878906" y2="1.0058265924453735" id="master_svg5_0_9433"><stop offset="0%" stop-color="#80FFFF" stop-opacity="1"/><stop offset="100%" stop-color="#02A7F0" stop-opacity="1"/></linearGradient><linearGradient x1="-0.005266799591481686" y1="-0.015884682536125183" x2="1.0039844512939453" y2="1.0086361169815063" id="master_svg6_0_9435"><stop offset="0%" stop-color="#80FFFF" stop-opacity="1"/><stop offset="100%" stop-color="#02A7F0" stop-opacity="1"/></linearGradient><linearGradient x1="-0.010533641092479229" y1="-0.015952972695231438" x2="1.0056819915771484" y2="1.0092788934707642" id="master_svg7_0_9437"><stop offset="0%" stop-color="#80FFFF" stop-opacity="1"/><stop offset="100%" stop-color="#02A7F0" stop-opacity="1"/></linearGradient><linearGradient x1="-0.0013900899793952703" y1="-0.02626092918217182" x2="1.0051896572113037" y2="1.0278853178024292" id="master_svg8_0_9439"><stop offset="0%" stop-color="#80FFFF" stop-opacity="1"/><stop offset="100%" stop-color="#02A7F0" stop-opacity="1"/></linearGradient><linearGradient x1="-0.002955750795081258" y1="-0.023961011320352554" x2="1.0051870346069336" y2="1.0142951011657715" id="master_svg9_0_9441"><stop offset="0%" stop-color="#80FFFF" stop-opacity="1"/><stop offset="100%" stop-color="#02A7F0" stop-opacity="1"/></linearGradient><linearGradient x1="-0.004143114201724529" y1="-0.011529314331710339" x2="1.0039674043655396" y2="1.0018094778060913" id="master_svga_0_9443"><stop offset="0%" stop-color="#80FFFF" stop-opacity="1"/><stop offset="100%" stop-color="#02A7F0" stop-opacity="1"/></linearGradient><linearGradient x1="-0.06136362627148628" y1="-0.0007575772469863296" x2="1.0522726774215698" y2="1.0015151500701904" id="master_svgb_0_9445"><stop offset="0%" stop-color="#80FFFF" stop-opacity="1"/><stop offset="100%" stop-color="#02A7F0" stop-opacity="1"/></linearGradient><linearGradient x1="-0.0727272629737854" y1="-0.0007575772469863296" x2="1.0409090518951416" y2="1.0015151500701904" id="master_svgc_0_9447"><stop offset="0%" stop-color="#80FFFF" stop-opacity="1"/><stop offset="100%" stop-color="#02A7F0" stop-opacity="1"/></linearGradient><linearGradient x1="-0.01587687060236931" y1="-0.011818178929388523" x2="1.0077027082443237" y2="1.0127272605895996" id="master_svgd_0_9449"><stop offset="0%" stop-color="#80FFFF" stop-opacity="1"/><stop offset="100%" stop-color="#02A7F0" stop-opacity="1"/></linearGradient><linearGradient x1="-0.034090910106897354" y1="-0.027272725477814674" x2="1.023863673210144" y2="1.030681848526001" id="master_svge_0_9451"><stop offset="0%" stop-color="#80FFFF" stop-opacity="1"/><stop offset="100%" stop-color="#02A7F0" stop-opacity="1"/></linearGradient><linearGradient x1="-0.05225753411650658" y1="-0.015116569586098194" x2="1.0676853656768799" y2="1.03482985496521" id="master_svgf_0_9453"><stop offset="0%" stop-color="#80FFFF" stop-opacity="1"/><stop offset="100%" stop-color="#02A7F0" stop-opacity="1"/></linearGradient><linearGradient x1="-0.016297677531838417" y1="-0.010909090749919415" x2="1.00824773311615" y2="1.0136363506317139" id="master_svgg_0_9455"><stop offset="0%" stop-color="#80FFFF" stop-opacity="1"/><stop offset="100%" stop-color="#02A7F0" stop-opacity="1"/></linearGradient><linearGradient x1="-0.005654855165630579" y1="-0.022457843646407127" x2="1.0038361549377441" y2="1.0779762268066406" id="master_svgh_0_9457"><stop offset="0%" stop-color="#80FFFF" stop-opacity="1"/><stop offset="100%" stop-color="#02A7F0" stop-opacity="1"/></linearGradient><linearGradient x1="-0.005027083680033684" y1="-0.08576396852731705" x2="1.0040048360824585" y2="1.014873743057251" id="master_svgi_0_9459"><stop offset="0%" stop-color="#80FFFF" stop-opacity="1"/><stop offset="100%" stop-color="#02A7F0" stop-opacity="1"/></linearGradient><linearGradient x1="-0.001623376738280058" y1="-0.024025971069931984" x2="1.000649333000183" y2="1.0259740352630615" id="master_svgj_0_9461"><stop offset="0%" stop-color="#80FFFF" stop-opacity="1"/><stop offset="100%" stop-color="#02A7F0" stop-opacity="1"/></linearGradient><linearGradient x1="-0.0009732976905070245" y1="-0.002650160575285554" x2="1.005718469619751" y2="1.0795053243637085" id="master_svgk_0_9463"><stop offset="0%" stop-color="#80FFFF" stop-opacity="1"/><stop offset="100%" stop-color="#02A7F0" stop-opacity="1"/></linearGradient><linearGradient x1="-0.0016746410401538014" y1="-0.0025974013842642307" x2="1.0005980730056763" y2="1.0155844688415527" id="master_svgl_0_9465"><stop offset="0%" stop-color="#80FFFF" stop-opacity="1"/><stop offset="100%" stop-color="#02A7F0" stop-opacity="1"/></linearGradient><linearGradient x1="-0.0000927273285924457" y1="-0.14183123409748077" x2="1.0057133436203003" y2="1.177737832069397" id="master_svgm_0_9467"><stop offset="0%" stop-color="#80FFFF" stop-opacity="1"/><stop offset="100%" stop-color="#02A7F0" stop-opacity="1"/></linearGradient></defs><g style="mix-blend-mode:passthrough"><g style="mix-blend-mode:passthrough"><rect x="0" y="0" width="60" height="60" rx="0" fill="#D8D8D8" fill-opacity="0"/></g><g><g><g><g><path d="M16.980843748168944,41.00830558898926C17.018013748168947,40.24518558898926,17.385243748168946,39.53174558898926,17.993743748168946,39.040525588989254C17.993743748168946,39.040525588989254,18.192953748168947,38.87882558898926,18.192953748168947,38.87882558898926C18.192953748168947,38.87882558898926,21.439923748168944,36.25552558898926,21.439923748168944,36.25552558898926C21.439923748168944,36.25552558898926,22.355803748168945,37.30285558898926,22.355803748168945,37.30285558898926C22.355803748168945,37.30285558898926,19.547373748168944,39.571645588989256,19.547373748168944,39.571645588989256C19.547373748168944,39.571645588989256,19.385663748168945,39.70225558898926,19.385663748168945,39.70225558898926C18.777653748168945,40.19370558898926,18.410903748168945,40.90711558898926,18.374063748168947,41.67003558898926C18.208473748168945,45.10389558898926,18.042883748168947,48.53782558898926,17.877313748168945,51.971625588989255C17.851983748168944,52.482325588989255,17.414033748168947,52.883825588989254,16.882363748168945,52.883825588989254C16.376633748168945,52.883825588989254,15.951173748168944,52.51942558898926,15.892913748168946,52.03632558898926C15.892913748168946,52.03632558898926,14.627763748168945,41.36902558898926,14.627763748168945,41.36902558898926C14.771354748168946,41.216025588989254,14.987387748168945,41.130205588989256,15.274569748168945,41.107815588989254C15.545321748168945,41.08248558898926,15.816933748168946,41.14700558898926,16.044263748168945,41.29065558898926C16.044263748168945,41.29065558898926,16.701423748168946,46.80842558898926,16.701423748168946,46.80842558898926C16.701423748168946,46.80842558898926,16.957553748168944,41.50335558898926,16.957553748168944,41.50335558898926C16.957553748168944,41.50335558898926,16.980843748168944,41.00830558898926,16.980843748168944,41.00830558898926C16.980843748168944,41.00830558898926,16.980843748168944,41.00830558898926,16.980843748168944,41.00830558898926ZM43.599463748168944,41.00830558898926C43.562663748168944,40.245375588989255,43.19586374816895,39.53196558898926,42.58786374816894,39.040525588989254C42.58786374816894,39.040525588989254,42.388663748168945,38.87882558898926,42.388663748168945,38.87882558898926C42.388663748168945,38.87882558898926,39.141663748168945,36.25552558898926,39.141663748168945,36.25552558898926C39.141663748168945,36.25552558898926,38.22586374816895,37.30285558898926,38.22586374816895,37.30285558898926C38.22586374816895,37.30285558898926,41.032963748168946,39.571645588989256,41.032963748168946,39.571645588989256C41.032963748168946,39.571645588989256,41.19466374816895,39.70225558898926,41.19466374816895,39.70225558898926C41.80316374816894,40.19347558898926,42.170363748168946,40.90691558898926,42.207563748168944,41.67003558898926C42.207563748168944,41.67003558898926,42.242463748168944,42.39769558898926,42.242463748168944,42.39769558898926C42.242463748168944,42.39769558898926,42.70426374816894,51.971625588989255,42.70426374816894,51.971625588989255C42.729663748168946,52.482325588989255,43.167563748168945,52.883825588989254,43.699263748168946,52.883825588989254C44.20496374816895,52.883825588989254,44.63046374816895,52.51942558898926,44.68866374816895,52.03632558898926C44.68866374816895,52.03632558898926,45.95386374816894,41.36902558898926,45.95386374816894,41.36902558898926C45.80896374816895,41.216025588989254,45.59296374816894,41.130205588989256,45.30706374816894,41.107815588989254C45.03626374816895,41.08248558898926,44.76466374816894,41.14700558898926,44.53736374816894,41.29065558898926C44.53736374816894,41.29065558898926,43.87896374816894,46.80842558898926,43.87896374816894,46.80842558898926C43.87896374816894,46.80842558898926,43.62406374816895,41.50335558898926,43.62406374816895,41.50335558898926C43.62406374816895,41.50335558898926,43.599463748168944,41.00830558898926,43.599463748168944,41.00830558898926C43.599463748168944,41.00830558898926,43.599463748168944,41.00830558898926,43.599463748168944,41.00830558898926Z" fill="url(#master_svg0_0_9423)" fill-opacity="1"/></g></g></g><g><g><g><path d="M16.188393748168945,30.452143419189454C16.188393748168945,30.452143419189454,16.188393748168945,40.841223419189454,16.188393748168945,40.841223419189454C15.856403748168946,40.66952341918945,15.605361748168946,40.57532341918945,15.345718748168945,40.57682341918945C15.083538748168944,40.57912341918946,14.830098748168945,40.67102341918945,14.627763748168945,40.83732341918945C14.627763748168945,40.83732341918945,14.660104048168945,29.976163419189454,14.660104048168945,29.976163419189454C14.660104048168945,29.976163419189454,14.663984848168946,29.093853419189454,14.663984848168946,29.093853419189454C14.666089348168946,28.367933419189452,14.947097748168945,27.670413419189455,15.449206748168946,27.144773419189452C15.449206748168946,27.144773419189452,15.995113748168945,26.573343419189452,15.995113748168945,26.573343419189452C15.995113748168945,26.573343419189452,18.392173748168943,24.065723419189453,18.392173748168943,24.065723419189453C18.392173748168943,24.065723419189453,19.421893748168944,25.044777419189455,19.421893748168944,25.044777419189455C19.421893748168944,25.044777419189455,17.138663748168945,27.43372341918945,17.138663748168945,27.43372341918945C17.138663748168945,27.43372341918945,16.674253748168944,27.918733419189454,16.674253748168944,27.918733419189454C16.297563748168944,28.313253419189454,16.086903748168947,28.836773419189452,16.085663748168944,29.381513419189453C16.085663748168944,29.381513419189453,16.188393748168945,30.452143419189454,16.188393748168945,30.452143419189454C16.188393748168945,30.452143419189454,16.188393748168945,30.452143419189454,16.188393748168945,30.452143419189454ZM44.490763748168945,30.452143419189454C44.490763748168945,30.452143419189454,44.52316374816894,40.841223419189454,44.52316374816894,40.841223419189454C44.717463748168946,40.66952341918945,44.96846374816894,40.57532341918945,45.228163748168946,40.57682341918945C45.48686374816894,40.57802341918945,45.72616374816894,40.66452341918945,45.44396374816894,40.83732341918945C45.44396374816894,40.83732341918945,45.44396374816894,29.976163419189454,45.44396374816894,29.976163419189454C45.44396374816894,29.976163419189454,45.909863748168945,29.093853419189454,45.909863748168945,29.093853419189454C45.90776374816895,28.367933419189452,45.62676374816894,27.670413419189455,45.12466374816894,27.144773419189452C45.12466374816894,27.144773419189452,44.578763748168946,26.573343419189452,44.578763748168946,26.573343419189452C44.578763748168946,26.573343419189452,42.181663748168944,24.065723419189453,42.181663748168944,24.065723419189453C42.181663748168944,24.065723419189453,41.151963748168946,25.044777419189455,41.151963748168946,25.044777419189455C41.151963748168946,25.044777419189455,43.43516374816895,27.43372341918945,43.43516374816895,27.43372341918945C43.43516374816895,27.43372341918945,43.89836374816895,27.918733419189454,43.89836374816895,27.918733419189454C44.276063748168944,28.313453419189454,44.48686374816894,28.835873419189454,44.488163748168944,29.381513419189453C44.488163748168944,29.381513419189453,44.490763748168945,30.452143419189454,44.490763748168945,30.452143419189454C44.490763748168945,30.452143419189454,44.490763748168945,30.452143419189454,44.490763748168945,30.452143419189454Z" fill="url(#master_svg1_0_9425)" fill-opacity="1"/></g></g></g><g><g><g><path d="M50.05902833251953,14.456197397247314C50.75662833251953,14.193495397247315,51.69282833251953,14.304944577247314,52.15042833251953,14.704305397247314C52.480328332519534,14.992217397247314,52.480328332519534,15.365041397247314,52.15042833251953,15.652951397247314C52.15042833251953,15.652951397247314,43.36082833251953,25.626381397247314,43.36082833251953,25.626381397247314C43.36082833251953,25.626381397247314,41.28502833251953,30.910981397247316,41.28502833251953,30.910981397247316C41.11252833251953,31.349181397247314,40.742328332519534,31.675381397247314,40.29142833251953,31.786581397247314C40.429628332519535,31.973681397247315,40.599128332519534,32.155481397247314,40.797328332519534,32.329281397247314C40.797328332519534,32.329281397247314,52.15042833251953,37.786281397247315,52.15042833251953,37.786281397247315C52.15042833251953,37.786281397247315,51.93142833251953,38.86768139724731,51.93142833251953,38.86768139724731C51.77362833251953,39.64518139724731,51.02652833251953,40.14538139724731,50.262428332519534,39.98478139724732C50.262428332519534,39.98478139724732,50.15942833251953,39.95828139724732,50.15942833251953,39.95828139724732C50.15942833251953,39.95828139724732,50.05902833251953,39.92508139724731,50.05902833251953,39.92508139724731C46.01432833251953,39.44218139724731,42.978828332519534,38.99638139724732,40.95772833251953,38.585081397247315C39.85852833251953,38.360781397247315,38.88452833251953,38.452381397247315,38.10612833251953,39.17278139724731C36.85042833251953,40.32978139724732,36.026328332519526,41.77328139724732,35.63262833251953,43.50338139724731C35.63262833251953,43.50338139724731,23.26632833251953,43.50338139724731,23.26632833251953,43.50338139724731C22.909028332519533,41.76268139724731,22.10982833251953,40.313881397247314,20.86972833251953,39.15688139724732C20.09132833251953,38.431181397247315,19.09122833251953,38.35018139724731,17.98812833251953,38.574381397247315C15.95403833251953,38.98838139724731,12.905508332519531,39.43818139724732,8.83992833251953,39.92508139724731C8.627388332519532,40.00468139724731,8.366608332519531,40.03128139724731,8.057588332519531,40.00468139724731C7.316700332519531,39.938681397247315,6.748331332519531,39.307281397247316,6.748464332519531,38.55058139724731C6.748464332519531,38.55058139724731,6.748464332519531,37.786281397247315,6.748464332519531,37.786281397247315C6.748464332519531,37.786281397247315,18.101528332519532,32.329281397247314,18.101528332519532,32.329281397247314C18.299728332519532,32.156781397247315,18.46922833251953,31.973681397247315,18.60882833251953,31.787981397247314C18.15742833251953,31.676281397247315,17.78692833251953,31.349581397247313,17.61392833251953,30.910981397247316C17.61392833251953,30.910981397247316,15.535488332519531,25.623681397247314,15.535488332519531,25.623681397247314C15.535488332519531,25.623681397247314,6.748464332519531,15.652951397247314,6.748464332519531,15.652951397247314C6.292097332519531,15.254919397247315,6.485075532519531,14.717573397247314,7.182665332519531,14.456197397247314C7.719088332519531,14.267556297247314,8.30220833251953,14.267556297247314,8.838628332519532,14.456197397247314C8.838628332519532,14.456197397247314,26.134928332519532,23.936051397247315,26.134928332519532,23.936051397247315C28.146828332519533,24.692281397247314,30.750728332519532,24.692281397247314,32.76402833251953,23.936051397247315C32.76402833251953,23.936051397247315,50.05902833251953,14.456197397247314,50.05902833251953,14.456197397247314C50.05902833251953,14.456197397247314,50.05902833251953,14.456197397247314,50.05902833251953,14.456197397247314Z" fill="url(#master_svg2_0_9427)" fill-opacity="1"/></g></g></g><g><g><g><path d="M22.79807056381836,45.59635683837891C22.79807056381836,45.59635683837891,23.93909916381836,41.131446838378906,23.93909916381836,41.131446838378906C23.93909916381836,41.13317741837891,23.93908916381836,41.13490800837891,23.93908916381836,41.13663859837891C23.93908916381836,41.922285838378905,24.59013916381836,42.5591768383789,25.39324916381836,42.5591768383789C25.39324916381836,42.5591768383789,25.39324916381836,42.5591768383789,25.39325916381836,42.594506838378905C25.39325916381836,42.594506838378905,34.18979916381836,42.594506838378905,34.18979916381836,42.594506838378905C34.977199163818355,42.558666838378905,35.61519916381836,41.93412983837891,35.61519916381836,41.163895638378904C35.61519916381836,41.1530782383789,35.61499916381836,41.14226123837891,35.61479916381836,41.131446838378906C35.61479916381836,41.131446838378906,36.75579916381836,45.59635683837891,36.75579916381836,45.59635683837891C36.94089916381836,46.3213968383789,36.52319916381836,47.063416838378906,35.79789916381836,47.297946838378905C33.79049916381836,47.946916838378904,31.78435916381836,48.27010683837891,29.77693916381836,48.27010683837891C27.76951916381836,48.27010683837891,25.76342916381836,47.9456168383789,23.75600916381836,47.297946838378905C23.03067516381836,47.063416838378906,22.61294216381836,46.3213968383789,22.79807056381836,45.59635683837891C22.79807056381836,45.59635683837891,22.79807056381836,45.59635683837891,22.79807056381836,45.59635683837891Z" fill="url(#master_svg3_0_9429)" fill-opacity="1"/></g></g></g><g><g><g><path d="M32.76412833251953,31.84117431411743C30.752228332519532,31.10337431411743,28.14832833251953,31.10337431411743,26.135128332519532,31.84117431411743C26.135128332519532,31.84117431411743,8.84010833251953,38.17997431411743,8.84010833251953,38.17997431411743C8.142518332519531,38.436274314117426,7.206315332519531,38.32747431411743,6.7486443325195316,37.93787431411744C6.418756332519531,37.656974314117434,6.418756332519531,37.29327431411743,6.7486443325195316,37.01237431411743C6.7486443325195316,37.01237431411743,18.10172833251953,27.354674314117432,18.10172833251953,27.354674314117432C19.42262833251953,26.231174314117432,19.42262833251953,24.776174314117434,18.10172833251953,23.652674314117434C18.10172833251953,23.652674314117434,6.7486443325195316,13.994984314117431,6.7486443325195316,13.994984314117431C6.292277332519531,13.606660314117432,6.485255532519531,13.082420314117432,7.182845332519531,12.827419314117432C7.7192683325195315,12.643379114117431,8.30238833251953,12.643379114117431,8.83880833251953,12.827419314117432C8.83880833251953,12.827419314117432,26.135128332519532,19.166194314117433,26.135128332519532,19.166194314117433C28.147028332519533,19.904014314117433,30.750928332519532,19.904014314117433,32.76412833251953,19.166194314117433C32.76412833251953,19.166194314117433,50.05912833251953,12.827419314117432,50.05912833251953,12.827419314117432C50.75672833251953,12.571124314117432,51.69292833251953,12.679855464117432,52.15062833251953,13.069476314117432C52.48052833251953,13.350365314117433,52.48052833251953,13.714094314117432,52.15062833251953,13.994984314117431C52.15062833251953,13.994984314117431,40.79752833251953,23.652674314117434,40.79752833251953,23.652674314117434C39.47672833251953,24.776174314117434,39.47672833251953,26.231174314117432,40.79752833251953,27.354674314117432C40.79752833251953,27.354674314117432,52.15062833251953,37.01237431411743,52.15062833251953,37.01237431411743C52.60702833251953,37.40067431411743,52.41402833251953,37.924974314117435,51.716428332519534,38.17997431411743C51.180028332519534,38.36397431411743,50.59692833251953,38.36397431411743,50.06052833251953,38.17997431411743C50.06052833251953,38.17997431411743,32.76412833251953,31.84117431411743,32.76412833251953,31.84117431411743C32.76412833251953,31.84117431411743,32.76412833251953,31.84117431411743,32.76412833251953,31.84117431411743Z" fill="url(#master_svg4_0_9431)" fill-opacity="1"/></g></g></g><g><g><g><path d="M50.08302749633789,12.827419314117432C50.787927496337886,12.571124314117432,51.73402749633789,12.679855464117432,52.19652749633789,13.069476314117432C52.52992749633789,13.350365314117433,52.52992749633789,13.714094314117432,52.19652749633789,13.994984314117431C52.19652749633789,13.994984314117431,40.72342749633789,23.652674314117434,40.72342749633789,23.652674314117434C39.38862749633789,24.776174314117434,39.38862749633789,26.231174314117432,40.72342749633789,27.354674314117432C40.72342749633789,27.354674314117432,52.19652749633789,37.01237431411743,52.19652749633789,37.01237431411743C52.65772749633789,37.40067431411743,52.46272749633789,37.924974314117435,51.757827496337896,38.17997431411743C51.21572749633789,38.36397431411743,50.62642749633789,38.36397431411743,50.08432749633789,38.17997431411743C50.08432749633789,38.17997431411743,32.605107496337894,31.84117431411743,32.605107496337894,31.84117431411743C31.58784749633789,31.47227431411743,30.421687496337892,31.287174314117433,29.25552749633789,31.287174314117433C29.25552749633789,31.287174314117433,29.25552749633789,19.72021431411743,29.25552749633789,19.72021431411743C30.421687496337892,19.72021431411743,31.58784749633789,19.535104314117433,32.605107496337894,19.166194314117433C32.605107496337894,19.166194314117433,50.08302749633789,12.827419314117432,50.08302749633789,12.827419314117432C50.08302749633789,12.827419314117432,50.08302749633789,12.827419314117432,50.08302749633789,12.827419314117432Z" fill="url(#master_svg5_0_9433)" fill-opacity="1"/></g></g></g><g><g><g><path d="M50.05902833251953,12.827796314117432C50.75662833251953,12.570805314117433,51.69282833251953,12.679831774117432,52.15042833251953,13.070511314117432C52.480328332519534,13.352163314117432,52.480328332519534,13.716884314117431,52.15042833251953,13.998534314117432C52.15042833251953,13.998534314117432,40.797328332519534,23.68247431411743,40.797328332519534,23.68247431411743C39.65642833251953,24.655874314117433,39.50122833251953,25.875974314117432,40.33182833251953,26.91817431411743C40.33182833251953,26.91817431411743,40.41272833251953,26.96627431411743,40.41272833251953,26.96627431411743C36.76172833251953,24.68187431411743,33.10822833251953,23.539674314117434,29.44942833251953,23.539674314117434C25.79592833251953,23.539674314117434,22.15672833251953,24.679274314117432,18.534428332519532,26.95717431411743C19.401528332519533,25.90837431411743,19.256828332519532,24.66887431411743,18.101528332519532,23.68247431411743C18.101528332519532,23.68247431411743,6.748464332519531,13.998534314117432,6.748464332519531,13.998534314117432C6.292097332519531,13.609155314117432,6.485075532519531,13.083490314117432,7.182665332519531,12.827796314117432C7.719088332519531,12.643256214117432,8.30220833251953,12.643256214117432,8.838628332519532,12.827796314117432C8.838628332519532,12.827796314117432,26.134928332519532,19.18380431411743,26.134928332519532,19.18380431411743C28.146828332519533,19.923624314117433,30.750728332519532,19.923624314117433,32.76402833251953,19.18380431411743C32.76402833251953,19.18380431411743,50.05902833251953,12.827796314117432,50.05902833251953,12.827796314117432C50.05902833251953,12.827796314117432,50.05902833251953,12.827796314117432,50.05902833251953,12.827796314117432Z" fill="url(#master_svg6_0_9435)" fill-opacity="1"/></g></g></g><g><g><g><path d="M8.86333833251953,12.826979314117432C8.86333833251953,12.826979314117432,8.864658332519532,12.826979314117432,8.864658332519532,12.826979314117432C8.864658332519532,12.826979314117432,26.34252833251953,19.182984314117434,26.34252833251953,19.182984314117434C27.35982833251953,19.55289431411743,28.52592833251953,19.73850431411743,29.69212833251953,19.73850431411743C29.69212833251953,19.73850431411743,29.69212833251953,23.538874314117432,29.69212833251953,23.538874314117432C25.99992833251953,23.538874314117432,22.32222833251953,24.67847431411743,18.66172833251953,26.956374314117433C19.53802833251953,25.907574314117433,19.39172833251953,24.668074314117433,18.22422833251953,23.68167431411743C18.22422833251953,23.68167431411743,6.751079332519531,13.997724314117432,6.751079332519531,13.997724314117432C6.289886332519531,13.608338314117432,6.4849047325195315,13.082673314117432,7.189871332519531,12.826979314117432C7.731968332519531,12.64243921411743,8.32124833251953,12.64243921411743,8.86333833251953,12.826979314117432C8.86333833251953,12.826979314117432,8.86333833251953,12.826979314117432,8.86333833251953,12.826979314117432Z" fill="url(#master_svg7_0_9437)" fill-opacity="1"/></g></g></g><g><g><g><path d="M50.219388957214356,12.820680314117432C50.43718895721435,12.742674914117432,50.67838895721435,12.699897714117432,50.920988957214355,12.688574314117432C50.920988957214355,12.688574314117432,32.02578895721436,20.70553431411743,32.02578895721436,20.70553431411743C30.558888957214357,21.327304314117434,28.890388957214356,21.32274431411743,27.427088957214355,20.69295431411743C27.427088957214355,20.69295431411743,8.939188957214355,12.741416814117432,8.939188957214355,12.741416814117432C9.037749857214356,12.761547214117432,9.133716957214356,12.787968514117432,9.223199957214355,12.820680314117432C9.223199957214355,12.820680314117432,26.424688957214354,18.98186431411743,26.424688957214354,18.98186431411743C28.425688957214355,19.69901431411743,31.015488957214355,19.69901431411743,33.01788895721435,18.98186431411743C33.01788895721435,18.98186431411743,50.219388957214356,12.820680314117432,50.219388957214356,12.820680314117432C50.219388957214356,12.820680314117432,50.219388957214356,12.820680314117432,50.219388957214356,12.820680314117432Z" fill="url(#master_svg8_0_9439)" fill-opacity="1"/></g></g></g><g><g><g><path d="M25.625181874084472,29.020262173339844C28.005381874084474,27.839531173339843,30.809181874084473,27.831547173339843,33.19618187408447,28.998702173339844C33.19618187408447,28.998702173339844,51.64878187408447,38.01974017333984,51.64878187408447,38.01974017333984C51.55228187408447,38.080150173339845,51.44928187408447,38.129890173339845,51.341781874084475,38.16809017333984C50.813281874084474,38.34849017333984,50.23868187408447,38.34849017333984,49.71018187408447,38.16809017333984C44.16058187408447,36.141240173339845,38.46368187408447,34.53147017333984,32.66818187408447,33.35259017333984C29.666981874084474,32.73876017333984,29.13768187408447,32.73876017333984,26.136581874084474,33.35259017333984C20.341481874084472,34.531530173339846,14.645001874084473,36.14130017333984,9.095811874084472,38.16809017333984C8.530521874084473,38.37489017333984,7.804650874084473,38.33929017333985,7.313881874084473,38.10725017333984C7.313881874084473,38.10725017333984,25.625181874084472,29.020262173339844,25.625181874084472,29.020262173339844C25.625181874084472,29.020262173339844,25.625181874084472,29.020262173339844,25.625181874084472,29.020262173339844Z" fill="url(#master_svg9_0_9441)" fill-opacity="1"/></g></g></g><g><g><g><path d="M51.86542833251953,12.802967314117431C51.99452833251953,12.858236314117432,52.10792833251953,12.925073314117432,52.20182833251953,13.004763314117431C52.531728332519535,13.283677314117432,52.531728332519535,13.644852314117431,52.20182833251953,13.923764314117431C52.20182833251953,13.923764314117431,40.84872833251953,23.51357431411743,40.84872833251953,23.51357431411743C39.52782833251953,24.62917431411743,39.52782833251953,26.073874314117433,40.84872833251953,27.18957431411743C40.84872833251953,27.18957431411743,52.20182833251953,36.77927431411743,52.20182833251953,36.77927431411743C52.41822833251953,36.96187431411743,52.48872833251953,37.17387431411743,52.430028332519534,37.373174314117435C52.430028332519534,37.373174314117435,52.02582833251953,37.54917431411744,52.02582833251953,37.54917431411744C52.02582833251953,37.54917431411744,37.44812833251953,26.881074314117434,37.44812833251953,26.881074314117434C37.44812833251953,26.881074314117434,37.18602833251953,26.55457431411743,37.18602833251953,26.55457431411743C36.82082833251953,26.099774314117433,36.62212833251953,25.53677431411743,36.62212833251953,24.956774314117432C36.62212833251953,24.103874314117434,37.05062833251953,23.306374314117434,37.766328332519535,22.827174314117432C37.766328332519535,22.827174314117432,37.766328332519535,22.82587431411743,37.766328332519535,22.82587431411743C37.766328332519535,22.82587431411743,37.82232833251953,22.787374314117432,37.82232833251953,22.787374314117432C38.845928332519534,22.09582431411743,43.58042833251953,18.72829431411743,52.02582833251953,12.688574314117437C52.02582833251953,12.688574314117437,51.86542833251953,12.802967314117431,51.86542833251953,12.802967314117431C51.86542833251953,12.802967314117431,51.86542833251953,12.802967314117431,51.86542833251953,12.802967314117431ZM6.799822332519531,13.923764314117431C6.436033032519531,13.616575314117432,6.4842776325195315,13.225837314117431,6.8689293325195315,12.950779314117431C6.8689293325195315,12.950779314117431,6.501228332519531,12.688574314117432,6.501228332519531,12.688574314117432C14.94662833251953,18.729574314117432,19.68112833251953,22.09582431411743,20.704628332519533,22.787374314117432C20.704628332519533,22.787374314117432,20.76072833251953,22.82587431411743,20.76072833251953,22.82587431411743C21.476428332519532,23.30517431411743,21.904828332519532,24.10267431411743,21.904828332519532,24.95547431411743C21.904828332519532,25.53547431411743,21.706128332519533,26.098474314117432,21.34102833251953,26.55327431411743C21.34102833251953,26.55327431411743,21.07762833251953,26.88237431411743,21.07762833251953,26.88237431411743C21.07762833251953,26.88237431411743,6.610756332519531,37.46827431411743,6.610756332519531,37.46827431411743C6.606231332519531,37.460674314117426,6.601884332519531,37.45287431411743,6.597717332519531,37.445074314117434C6.597717332519531,37.445074314117434,8.996908332519531,34.924574314117436,8.996908332519531,34.924574314117436C8.996908332519531,34.924574314117436,18.15292833251953,27.18957431411743,18.15292833251953,27.18957431411743C19.47382833251953,26.073874314117433,19.47382833251953,24.62917431411743,18.15292833251953,23.51357431411743C18.15292833251953,23.51357431411743,6.799822332519531,13.923764314117431,6.799822332519531,13.923764314117431C6.799822332519531,13.923764314117431,6.799822332519531,13.923764314117431,6.799822332519531,13.923764314117431Z" fill="url(#master_svga_0_9443)" fill-opacity="1"/></g></g></g><g><g><g><path d="M35.75675582885742,40.85748784790039C35.75675582885742,39.956587847900394,36.24324182885742,39.50613784790041,37.21621582885742,39.50613784790041C38.18918582885742,39.50613784790041,38.67567582885742,39.956587847900394,38.67567582885742,40.85748784790039C38.67567582885742,40.85748784790039,38.67567582885742,46.26289784790039,38.67567582885742,46.26289784790039C38.67567582885742,47.16379784790039,38.18918582885742,47.61424784790039,37.21621582885742,47.61424784790039C36.24324282885742,47.61424784790039,35.756755871183124,47.16379784790039,35.75675582885742,46.26289784790039C35.75675582885742,46.26289784790039,35.75675582885742,40.85748784790039,35.75675582885742,40.85748784790039C35.75675582885742,40.85748784790039,35.75675582885742,40.85748784790039,35.75675582885742,40.85748784790039Z" fill="url(#master_svgb_0_9445)" fill-opacity="1"/></g></g></g><g><g><g><path d="M21.128992080688477,40.85748784790039C21.128992080688477,39.956587847900394,21.615478080688476,39.50613784790041,22.588452080688477,39.50613784790041C23.561422080688477,39.50613784790041,24.047912080688477,39.956587847900394,24.047912080688477,40.85748784790039C24.047912080688477,40.85748784790039,24.047912080688477,46.26289784790039,24.047912080688477,46.26289784790039C24.047912080688477,47.16379784790039,23.561422080688477,47.61424784790039,22.588452080688477,47.61424784790039C21.615479080688477,47.61424784790039,21.128992123014175,47.16379784790039,21.128992080688477,46.26289784790039C21.128992080688477,46.26289784790039,21.128992080688477,40.85748784790039,21.128992080688477,40.85748784790039C21.128992080688477,40.85748784790039,21.128992080688477,40.85748784790039,21.128992080688477,40.85748784790039Z" fill="url(#master_svgc_0_9447)" fill-opacity="1"/></g></g></g><g><g><g><path d="M33.95959591796875,43.88812425048828C33.95959591796875,45.85969425048828,34.21009591796875,47.45745425048828,30.39026591796875,47.45745425048828C26.57043191796875,47.45745425048828,26.82093380796875,45.85969425048828,26.82093380796875,43.88812425048828C26.82093380796875,41.91683425048828,28.41897591796875,40.31879425048828,30.39026591796875,40.31879425048828C32.36154591796875,40.31879425048828,33.95959591796875,41.91683425048828,33.95959591796875,43.88812425048828C33.95959591796875,43.88812425048828,33.95959591796875,43.88812425048828,33.95959591796875,43.88812425048828Z" fill="url(#master_svgd_0_9449)" fill-opacity="1"/></g></g></g><g><g><g><path d="M27.630220413208008,47.07054100463867C27.630220413208008,48.55534100463867,28.833890413208007,49.75902100463867,30.318700413208006,49.75902100463867C31.803500413208006,49.75902100463867,33.007180413208005,48.55534100463867,33.007180413208005,47.07054100463867C33.007180413208005,45.585731004638674,31.803500413208006,44.38206100463867,30.318700413208006,44.38206100463867C28.833890413208007,44.38206100463867,27.630220413208008,45.585731004638674,27.630220413208008,47.07054100463867C27.630220413208008,47.07054100463867,27.630220413208008,47.07054100463867,27.630220413208008,47.07054100463867Z" fill="url(#master_svge_0_9451)" fill-opacity="1"/></g></g></g><g><g><g><path d="M32.11128490844727,46.26536418041992C32.487534908447266,45.92136668041992,32.863784908447265,45.92136668041992,33.240034908447264,46.26536418041992C33.61628490844726,46.60936218041992,33.61628490844726,46.95336018041992,33.240034908447264,47.297356180419925C33.240034908447264,47.297356180419925,29.853804908447266,50.39333618041992,29.853804908447266,50.39333618041992C29.477554908447267,50.73733618041992,29.101307908447264,50.73733618041992,28.725060908447265,50.39333618041992C28.348813008447266,50.049346180419924,28.348813008447266,49.70534618041992,28.725060908447265,49.36134618041992C28.725060908447265,49.36134618041992,32.11128490844727,46.26536418041992,32.11128490844727,46.26536418041992C32.11128490844727,46.26536418041992,32.11128490844727,46.26536418041992,32.11128490844727,46.26536418041992Z" fill="url(#master_svgf_0_9453)" fill-opacity="1"/></g></g></g><g><g><g><path d="M33.95622591796875,47.13873841674805C33.95622591796875,49.10983841674805,32.35846591796875,50.707808416748044,30.38736591796875,50.70806841674805C28.41560591796875,50.70806841674805,26.81756591796875,49.110028416748044,26.81756591796875,47.13873841674805C26.81756591796875,45.167448416748044,28.41560591796875,43.56940841674805,30.38689591796875,43.56940841674805C32.35846591796875,43.56966845874805,33.95622591796875,45.16763841674805,33.95622591796875,47.13873841674805C33.95622591796875,47.13873841674805,33.95622591796875,47.13873841674805,33.95622591796875,47.13873841674805ZM28.24613591796875,47.13873841674805C28.24613591796875,48.321368416748044,29.20473591796875,49.280138416748045,30.38736591796875,49.280338416748044C31.57050591796875,49.280338416748044,32.52932591796875,48.321508416748046,32.52932591796875,47.13873841674805C32.52932591796875,45.95596841674805,31.57050591796875,44.997138416748044,30.38773591796875,44.997138416748044C29.20473591796875,44.99733841674805,28.24613591796875,45.956108416748044,28.24613591796875,47.13873841674805C28.24613591796875,47.13873841674805,28.24613591796875,47.13873841674805,28.24613591796875,47.13873841674805Z" fill="url(#master_svgg_0_9455)" fill-opacity="1"/></g></g></g><g><g><g><path d="M49.51182833251953,13.534400772552491C49.51182833251953,12.61844577255249,50.15402833251953,11.87592077255249,50.94612833251953,11.87592077255249C51.73892833251953,11.87592077255249,52.38172833251953,12.61771177255249,52.38432833251953,13.534400772552491C52.38432833251953,13.534400772552491,52.38692833251953,14.52948077255249,52.38692833251953,14.52948077255249C52.38692833251953,14.52948077255249,50.52242833251953,15.49441077255249,50.52242833251953,15.49441077255249C50.43012833251953,15.54225077255249,50.33012833251953,15.56698077255249,50.22902833251953,15.56698077255249C49.833928332519534,15.56698077255249,49.51322833251953,15.19743077255249,49.51182833251953,14.74056077255249C49.51182833251953,14.74056077255249,49.51182833251953,13.534400772552491,49.51182833251953,13.534400772552491C49.51182833251953,13.534400772552491,49.51182833251953,13.534400772552491,49.51182833251953,13.534400772552491ZM9.365938332519532,13.52384077255249C9.365938332519532,12.61429577255249,8.728648332519532,11.87673427455249,7.942048332519532,11.87592077255249C7.149269332519531,11.87592077255249,6.505140062519531,12.61771177255249,6.502532242519531,13.534400772552491C6.502532242519531,13.534400772552491,6.501228332519531,14.52948077255249,6.501228332519531,14.52948077255249C6.501228332519531,14.52948077255249,8.34625833251953,15.49441077255249,8.34625833251953,15.49441077255249C8.439248332519531,15.54314077255249,8.540158332519532,15.56834077255249,8.642248332519532,15.56834077255249C9.03680833251953,15.56834077255249,9.357258332519532,15.19980077255249,9.359388332519531,14.743580772552491C9.359388332519531,14.743580772552491,9.365908332519531,13.534400772552491,9.365908332519531,13.534400772552491C9.36592833251953,13.53088077255249,9.365938332519532,13.527360772552491,9.365938332519532,13.52384077255249C9.365938332519532,13.52384077255249,9.365938332519532,13.52384077255249,9.365938332519532,13.52384077255249Z" fill="url(#master_svgh_0_9457)" fill-opacity="1"/></g></g></g><g><g><g><path d="M6.501228332558343,37.09381109375C6.501228332558343,36.18260209375,7.139680332519531,35.44369374575,7.9277183325195315,35.44287109375C8.720488332519531,35.44287109375,9.36461833251953,36.18466209375,9.367228332519531,37.10135109375C9.367228332519531,37.10135109375,9.368528332519531,38.09643109375,9.368528332519531,38.09643109375C9.368528332519531,38.09643109375,7.518288332519531,39.06136109375,7.518288332519531,39.06136109375C7.425656332519531,39.10964109375,7.325208332519531,39.13461109375,7.223600332519531,39.13461109375C6.828761332519531,39.13461109375,6.508195892519531,38.76557109375,6.506458852519531,38.30902109375C6.506458852519531,38.30902109375,6.501243220419531,37.10135109375,6.501243220419531,37.10135109375C6.5012332951895315,37.09883109375,6.501228332558343,37.09632109375,6.501228332558343,37.09381109375C6.501228332558343,37.09381109375,6.501228332558343,37.09381109375,6.501228332558343,37.09381109375ZM52.40782833251953,37.10135109375C52.405228332519535,36.18466209375,51.763728332519534,35.4428711658961,50.970928332519534,35.44287109375C50.178128332519535,35.44287109375,49.53402833251953,36.18466209375,49.53272833251953,37.10135109375C49.53272833251953,37.10135109375,49.53012833251953,38.09643109375,49.53012833251953,38.09643109375C49.53012833251953,38.09643109375,51.39732833251953,39.06136109375,51.39732833251953,39.06136109375C51.48962833251953,39.10920109375,51.58962833251953,39.13393109375,51.690728332519534,39.13393109375C52.086728332519534,39.13393109375,52.40782833251953,38.76267109375,52.40782833251953,38.30469109375C52.40782833251953,38.30469109375,52.40782833251953,37.10135109375,52.40782833251953,37.10135109375C52.40782833251953,37.10135109375,52.40782833251953,37.10135109375,52.40782833251953,37.10135109375Z" fill="url(#master_svgi_0_9459)" fill-opacity="1"/></g></g></g><g><g><g><path d="M47.2727,7.280936C47.2727,7.280936,45.7143,7,45.7143,7C45.7143,7,50.861,11.60865,50.861,11.60865C50.861,11.60865,51.5403,11.9497,51.5403,11.9497C51.5403,11.9497,51.2286,14.118780000000001,51.2286,14.118780000000001C51.2286,14.118780000000001,58.5286,17.0614,58.5286,17.0614C58.5286,17.0614,60,16.53353,60,16.53353C60,16.53353,54.1857,11.657,54.1857,11.657C54.1857,11.657,52.1766,11.33817,52.1766,11.33817C52.1766,11.33817,51.5571,10.90697,51.5571,10.90697C51.5571,10.90697,51.5338,9.77931,51.5338,9.77931C51.5338,9.77931,47.2727,7.280936,47.2727,7.280936C47.2727,7.280936,47.2727,7.280936,47.2727,7.280936ZM12.7273,7.280936C12.7273,7.280936,14.2857,7,14.2857,7C14.2857,7,9.13896,11.60865,9.13896,11.60865C9.13896,11.60865,8.45974,11.9497,8.45974,11.9497C8.45974,11.9497,8.77143,14.118780000000001,8.77143,14.118780000000001C8.77143,14.118780000000001,1.47013,17.0614,1.47013,17.0614C1.47013,17.0614,0,16.53353,0,16.53353C0,16.53353,5.81429,11.657,5.81429,11.657C5.81429,11.657,7.82338,11.33817,7.82338,11.33817C7.82338,11.33817,8.44286,10.90697,8.44286,10.90697C8.44286,10.90697,8.46623,9.77931,8.46623,9.77931C8.46623,9.77931,12.7273,7.280936,12.7273,7.280936C12.7273,7.280936,12.7273,7.280936,12.7273,7.280936Z" fill="url(#master_svgj_0_9461)" fill-opacity="1"/></g></g></g><g><g><g><path d="M50.279281874084475,11.792997230987549C50.279281874084475,12.195927230987548,50.600081874084474,12.52260723098755,50.99578187408447,12.522727230987549C51.391881874084476,12.522727230987549,51.712681874084474,12.196017230987549,51.712681874084474,11.792997230987549C51.712681874084474,11.389978230987548,51.391881874084476,11.063267230987549,50.99598187408447,11.063267230987549C50.600081874084474,11.06338611298755,50.279281874084475,11.39006223098755,50.279281874084475,11.792997230987549C50.279281874084475,11.792997230987549,50.279281874084475,11.792997230987549,50.279281874084475,11.792997230987549ZM7.313881874084473,11.83545423098755C7.313881874084473,12.238387230987549,7.634629874084473,12.565067230987548,8.030368874084473,12.565187230987549C8.426401874084473,12.565187230987549,8.747281874084473,12.238477230987549,8.747281874084473,11.83545423098755C8.747281874084473,11.432435230987549,8.426401874084473,11.10572423098755,8.030580874084473,11.10572423098755C7.634629874084473,11.105843130987548,7.313881874084473,11.432519230987548,7.313881874084473,11.83545423098755C7.313881874084473,11.83545423098755,7.313881874084473,11.83545423098755,7.313881874084473,11.83545423098755Z" fill="url(#master_svgk_0_9463)" fill-opacity="1"/></g></g></g><g><g><g><path d="M55.22781416625977,31.74032333959961C55.22781416625977,31.74032333959961,56.764114166259766,31.37960433959961,56.764114166259766,31.37960433959961C56.764114166259766,31.37960433959961,51.69061416625976,35.47811433959961,51.69061416625976,35.47811433959961C51.69061416625976,35.47811433959961,51.02101416625977,35.59254433959961,51.02101416625977,35.59254433959961C51.02101416625977,35.59254433959961,51.08501416625977,37.74442433959961,51.08501416625977,37.74442433959961C51.08501416625977,37.74442433959961,44.13081416625977,40.95730433959961,44.13081416625977,40.95730433959961C44.13081416625977,40.95730433959961,42.68031416625976,40.46473433959961,42.68031416625976,40.46473433959961C42.68031416625976,40.46473433959961,48.41321416625976,35.31392433959961,48.41321416625976,35.31392433959961C48.41321416625976,35.31392433959961,50.39371416625976,35.01042433959961,50.39371416625976,35.01042433959961C50.39371416625976,35.01042433959961,51.004414166259764,34.599954339599606,51.004414166259764,34.599954339599606C51.004414166259764,34.599954339599606,51.02741416625977,33.52650433959961,51.02741416625977,33.52650433959961C51.02741416625977,33.52650433959961,55.22781416625977,31.74032333959961,55.22781416625977,31.74032333959961C55.22781416625977,31.74032333959961,55.22781416625977,31.74032333959961,55.22781416625977,31.74032333959961ZM4.786884166259766,31.74032333959961C4.786884166259766,31.74032333959961,3.2506141662597656,31.37960433959961,3.2506141662597656,31.37960433959961C3.2506141662597656,31.37960433959961,8.324154166259767,35.47811433959961,8.324154166259767,35.47811433959961C8.324154166259767,35.47811433959961,8.993714166259766,35.59254433959961,8.993714166259766,35.59254433959961C8.993714166259766,35.59254433959961,8.893854166259764,37.595164339599606,8.893854166259764,37.595164339599606C8.893854166259764,37.595164339599606,15.881314166259765,40.95730433959961,15.881314166259765,40.95730433959961C15.881314166259765,40.95730433959961,17.33181416625977,40.46473433959961,17.33181416625977,40.46473433959961C17.33181416625977,40.46473433959961,11.601534166259766,35.31392433959961,11.601534166259766,35.31392433959961C11.601534166259766,35.31392433959961,9.621024166259765,35.01042433959961,9.621024166259765,35.01042433959961C9.621024166259765,35.01042433959961,9.010354166259766,34.599954339599606,9.010354166259766,34.599954339599606C9.010354166259766,34.599954339599606,8.987314166259765,33.52650433959961,8.987314166259765,33.52650433959961C8.987314166259765,33.52650433959961,4.786884166259766,31.74032333959961,4.786884166259766,31.74032333959961C4.786884166259766,31.74032333959961,4.786884166259766,31.74032333959961,4.786884166259766,31.74032333959961Z" fill="url(#master_svgl_0_9465)" fill-opacity="1"/></g></g></g><g><g><g><path d="M50.31838187408447,35.565599505859375C50.31838187408447,36.06926850585938,50.63918187408447,36.47760850585937,51.03488187408447,36.47775850585938C51.43098187408447,36.47775850585938,51.75178187408447,36.06936850585937,51.75178187408447,35.565599505859375C51.75178187408447,35.06182650585937,51.43098187408447,34.653437105859375,51.035081874084476,34.653437105859375C50.63918187408447,34.65358570585938,50.31838187408447,35.06193150585938,50.31838187408447,35.565599505859375C50.31838187408447,35.565599505859375,50.31838187408447,35.565599505859375,50.31838187408447,35.565599505859375ZM7.313881874084473,35.54238050585938C7.313881874084473,36.046048505859375,7.634629874084473,36.45439850585937,8.030368874084473,36.454538505859375C8.426401874084473,36.454538505859375,8.747281874084473,36.046158505859374,8.747281874084473,35.54238050585938C8.747281874084473,35.038607505859375,8.426401874084473,34.630218505859375,8.030580874084473,34.630218505859375C7.634629874084473,34.630367108859375,7.313881874084473,35.03871250585937,7.313881874084473,35.54238050585938C7.313881874084473,35.54238050585938,7.313881874084473,35.54238050585938,7.313881874084473,35.54238050585938Z" fill="url(#master_svgm_0_9467)" fill-opacity="1"/></g></g></g></g></g></svg>