<svg xmlns="http://www.w3.org/2000/svg" xmlns:xlink="http://www.w3.org/1999/xlink" fill="none" version="1.1" width="60" height="60" viewBox="0 0 60 60"><defs><linearGradient x1="-0.004463929682970047" y1="-0.0035239998251199722" x2="1.0158629417419434" y2="1.0189058780670166" id="master_svg0_0_9473"><stop offset="0%" stop-color="#80FFFF" stop-opacity="1"/><stop offset="100%" stop-color="#02A7F0" stop-opacity="1"/></linearGradient><linearGradient x1="-0.006312467157840729" y1="-0.0021115143317729235" x2="1.0171488523483276" y2="1.0114153623580933" id="master_svg1_0_9475"><stop offset="0%" stop-color="#80FFFF" stop-opacity="1"/><stop offset="100%" stop-color="#02A7F0" stop-opacity="1"/></linearGradient><linearGradient x1="0" y1="0" x2="0" y2="0" id="master_svg2_0_9477"><stop offset="0%" stop-color="#80FFFF" stop-opacity="1"/><stop offset="100%" stop-color="#02A7F0" stop-opacity="1"/></linearGradient><linearGradient x1="-0.006312467157840729" y1="-0.2351648360490799" x2="1.0171488523483276" y2="1.1714285612106323" id="master_svg3_0_9479"><stop offset="0%" stop-color="#80FFFF" stop-opacity="1"/><stop offset="100%" stop-color="#02A7F0" stop-opacity="1"/></linearGradient><linearGradient x1="0" y1="0" x2="0" y2="0" id="master_svg4_0_9477"><stop offset="0%" stop-color="#80FFFF" stop-opacity="1"/><stop offset="100%" stop-color="#02A7F0" stop-opacity="1"/></linearGradient><linearGradient x1="-0.006312467157840729" y1="-0.2032967060804367" x2="1.0171488523483276" y2="1.2032966613769531" id="master_svg5_0_9481"><stop offset="0%" stop-color="#80FFFF" stop-opacity="1"/><stop offset="100%" stop-color="#02A7F0" stop-opacity="1"/></linearGradient><linearGradient x1="0" y1="0" x2="0" y2="0" id="master_svg6_0_9477"><stop offset="0%" stop-color="#80FFFF" stop-opacity="1"/><stop offset="100%" stop-color="#02A7F0" stop-opacity="1"/></linearGradient><linearGradient x1="-0.006312467157840729" y1="-0.19560439884662628" x2="1.0171488523483276" y2="1.210988998413086" id="master_svg7_0_9483"><stop offset="0%" stop-color="#80FFFF" stop-opacity="1"/><stop offset="100%" stop-color="#02A7F0" stop-opacity="1"/></linearGradient><linearGradient x1="0" y1="0" x2="0" y2="0" id="master_svg8_0_9477"><stop offset="0%" stop-color="#80FFFF" stop-opacity="1"/><stop offset="100%" stop-color="#02A7F0" stop-opacity="1"/></linearGradient><linearGradient x1="-0.006312467157840729" y1="-0.1824175864458084" x2="1.0171488523483276" y2="1.2241758108139038" id="master_svg9_0_9485"><stop offset="0%" stop-color="#80FFFF" stop-opacity="1"/><stop offset="100%" stop-color="#02A7F0" stop-opacity="1"/></linearGradient><linearGradient x1="0" y1="0" x2="0" y2="0" id="master_svga_0_9477"><stop offset="0%" stop-color="#80FFFF" stop-opacity="1"/><stop offset="100%" stop-color="#02A7F0" stop-opacity="1"/></linearGradient><linearGradient x1="-0.006312467157840729" y1="-0.17472527921199799" x2="1.0171488523483276" y2="1.2318681478500366" id="master_svgb_0_9487"><stop offset="0%" stop-color="#80FFFF" stop-opacity="1"/><stop offset="100%" stop-color="#02A7F0" stop-opacity="1"/></linearGradient><linearGradient x1="0" y1="0" x2="0" y2="0" id="master_svgc_0_9477"><stop offset="0%" stop-color="#80FFFF" stop-opacity="1"/><stop offset="100%" stop-color="#02A7F0" stop-opacity="1"/></linearGradient><linearGradient x1="-0.02746175043284893" y1="-0.02588522620499134" x2="1.009782075881958" y2="1.0368742942810059" id="master_svgd_0_9489"><stop offset="0%" stop-color="#80FFFF" stop-opacity="1"/><stop offset="100%" stop-color="#02A7F0" stop-opacity="1"/></linearGradient><linearGradient x1="-0.0259723961353302" y1="-0.027053140103816986" x2="1.0018820762634277" y2="1.0447665452957153" id="master_svge_0_9491"><stop offset="0%" stop-color="#80FFFF" stop-opacity="1"/><stop offset="100%" stop-color="#02A7F0" stop-opacity="1"/></linearGradient><linearGradient x1="-0.022507552057504654" y1="-0.02870967797935009" x2="1.0216012001037598" y2="1.0448386669158936" id="master_svgf_0_9493"><stop offset="0%" stop-color="#80FFFF" stop-opacity="1"/><stop offset="100%" stop-color="#02A7F0" stop-opacity="1"/></linearGradient><linearGradient x1="-0.08406779915094376" y1="-0.05932201072573662" x2="1.0440677404403687" y2="1.0688135623931885" id="master_svgg_0_9495"><stop offset="0%" stop-color="#80FFFF" stop-opacity="1"/><stop offset="100%" stop-color="#02A7F0" stop-opacity="1"/></linearGradient><linearGradient x1="-0.03288135677576065" y1="-0.06101695075631142" x2="1.008474588394165" y2="1.0671186447143555" id="master_svgh_0_9497"><stop offset="0%" stop-color="#80FFFF" stop-opacity="1"/><stop offset="100%" stop-color="#02A7F0" stop-opacity="1"/></linearGradient><linearGradient x1="-0.029009977355599403" y1="-0.013564547523856163" x2="1.0319262742996216" y2="1.0124084949493408" id="master_svgi_0_9499"><stop offset="0%" stop-color="#80FFFF" stop-opacity="1"/><stop offset="100%" stop-color="#02A7F0" stop-opacity="1"/></linearGradient><linearGradient x1="-0.17459017038345337" y1="-0.010823988355696201" x2="1.0844262838363647" y2="1.01267671585083" id="master_svgj_0_9501"><stop offset="0%" stop-color="#80FFFF" stop-opacity="1"/><stop offset="100%" stop-color="#02A7F0" stop-opacity="1"/></linearGradient><linearGradient x1="-0.17459017038345337" y1="-0.015776580199599266" x2="1.0844262838363647" y2="1.012738823890686" id="master_svgk_0_9503"><stop offset="0%" stop-color="#80FFFF" stop-opacity="1"/><stop offset="100%" stop-color="#02A7F0" stop-opacity="1"/></linearGradient></defs><g style="mix-blend-mode:passthrough"><g style="mix-blend-mode:passthrough"><rect x="0" y="0" width="60" height="60" rx="0" fill="#D8D8D8" fill-opacity="0"/></g><g><g><g><g><path d="M40.0489,57.350744482421874C40.0663,59.12294448242187,38.477199999999996,60.560944482421874,36.514700000000005,59.78414448242187C36.514700000000005,59.78414448242187,23.29836,59.78414448242187,23.29836,59.78414448242187C21.33587,60.560944482421874,19.746785,59.12294448242187,19.869261,57.35844448242187C19.869261,57.35844448242187,19.869261,39.270744482421875,19.869261,39.270744482421875C19.746785,38.734344482421875,19.712051,38.205844482421874,19.642582,37.67724448242188C19.642582,37.67724448242188,19.104203,33.41764448242188,19.104203,33.41764448242188C19.0347342,32.88914448242188,19,32.352744482421876,19,31.824244482421875C19,31.824244482421875,19,23.289444482421874,19,23.289444482421874C19,21.633804482421876,20.48489,20.296844482421875,22.31711,20.296844482421875C22.31711,20.296844482421875,37.469899999999996,20.296844482421875,37.469899999999996,20.296844482421875C39.302099999999996,20.296844482421875,40.787,21.633804482421876,40.787,23.289444482421874C40.787,23.289444482421874,40.787,31.839744482421874,40.787,31.839744482421874C40.787,32.376044482421875,40.752300000000005,32.912444482421876,40.6828,33.44094448242188C40.6828,33.44094448242188,40.153099999999995,37.66944448242187,40.153099999999995,37.66944448242187C40.083600000000004,38.19804448242188,40.0489,38.734344482421875,40.0489,39.270744482421875C40.0489,39.270744482421875,40.0489,57.350744482421874,40.0489,57.350744482421874C40.0489,57.350744482421874,40.0489,57.350744482421874,40.0489,57.350744482421874Z" fill="url(#master_svg0_0_9473)" fill-opacity="1"/></g></g></g><g><g><g><path d="M33.71893287029266,23.71741097717285C33.693532870292664,23.89831097717285,33.53313287029266,24.03203097717285,33.33043287029266,24.03203097717285C33.33043287029266,24.03203097717285,25.341372870292663,24.03203097717285,25.341372870292663,24.03203097717285C25.147132870292666,24.03203097717285,24.978232870292665,23.89831097717285,24.944452870292665,23.71741097717285C24.944452870292665,23.71741097717285,24.589762870292663,21.695964977172853,24.589762870292663,21.695964977172853C24.547532870292663,21.46786497717285,24.741772870292664,21.26336097717285,24.986682870292665,21.26336097717285C24.986682870292665,21.26336097717285,33.67673287029267,21.26336097717285,33.67673287029267,21.26336097717285C33.92163287029266,21.26336097717285,34.115832870292664,21.46786497717285,34.07363287029266,21.695964977172853C34.07363287029266,21.695964977172853,33.71893287029266,23.71741097717285,33.71893287029266,23.71741097717285C33.71893287029266,23.71741097717285,33.71893287029266,23.71741097717285,33.71893287029266,23.71741097717285ZM36.98713287029266,44.875660977172856C36.97873287029266,45.00156097717285,36.86893287029267,45.103760977172854,36.74223287029267,45.103760977172854C36.74223287029267,45.103760977172854,21.177940870292662,45.103760977172854,21.177940870292662,45.103760977172854C21.042818870292663,45.103760977172854,20.933032870292664,45.00156097717285,20.933032870292664,44.875660977172856C20.933032870292664,44.875660977172856,20.933032870292664,43.90036097717285,20.933032870292664,43.90036097717285C20.933032870292664,43.774560977172854,21.042818870292663,43.672260977172854,21.177940870292662,43.442860977172856C21.177940870292662,43.442860977172856,36.74223287029267,43.442860977172856,36.74223287029267,43.442860977172856C36.87733287029266,43.672260977172854,36.98713287029266,43.774560977172854,36.98713287029266,43.90036097717285C36.98713287029266,43.90036097717285,36.98713287029266,44.875660977172856,36.98713287029266,44.875660977172856C36.98713287029266,44.875660977172856,36.98713287029266,44.875660977172856,36.98713287029266,44.875660977172856Z" fill="url(#master_svg1_0_9475)" fill-opacity="1"/></g></g></g><g><g><g><path d="M20.933032870292664,44.459754943847656C20.933032870292664,44.459754943847656,37.36383287029267,44.459754943847656,37.36383287029267,44.459754943847656C37.36383287029267,44.459754943847656,20.933032870292664,44.459754943847656,20.933032870292664,44.459754943847656C20.933032870292664,44.459754943847656,20.933032870292664,44.459754943847656,20.933032870292664,44.459754943847656Z" fill="url(#master_svg2_0_9477)" fill-opacity="1"/></g></g></g><g><g><g><path d="M36.98713287029266,41.74897896484375C36.97873287029266,41.86978896484375,36.86893287029267,41.96795896484375,36.74223287029267,41.96795896484375C36.74223287029267,41.96795896484375,21.177940870292662,41.96795896484375,21.177940870292662,41.96795896484375C21.042818870292663,41.96795896484375,20.933032870292664,41.86978896484375,20.933032870292664,41.74897896484375C20.933032870292664,41.74897896484375,20.933032870292664,40.81266496484375,20.933032870292664,40.81266496484375C20.933032870292664,40.69185076484375,21.042818870292663,40.59368896484375,21.177940870292662,40.59368896484375C21.177940870292662,40.59368896484375,36.74223287029267,40.59368896484375,36.74223287029267,40.59368896484375C36.87733287029266,40.59368896484375,36.98713287029266,40.69185076484375,36.98713287029266,40.81266496484375C36.98713287029266,40.81266496484375,36.98713287029266,41.74897896484375,36.98713287029266,41.74897896484375C36.98713287029266,41.74897896484375,36.98713287029266,41.74897896484375,36.98713287029266,41.74897896484375Z" fill="url(#master_svg3_0_9479)" fill-opacity="1"/></g></g></g><g><g><g><path d="M20.933032870292664,41.56020736694336C20.933032870292664,41.56020736694336,37.36383287029267,41.56020736694336,37.36383287029267,41.56020736694336C37.36383287029267,41.56020736694336,20.933032870292664,41.56020736694336,20.933032870292664,41.56020736694336C20.933032870292664,41.56020736694336,20.933032870292664,41.56020736694336,20.933032870292664,41.56020736694336Z" fill="url(#master_svg4_0_9477)" fill-opacity="1"/></g></g></g><g><g><g><path d="M36.98713287029266,47.54807793334961C36.97873287029266,47.67643793334961,36.86893287029267,47.76705793334961,36.74223287029267,47.76705793334961C36.74223287029267,47.76705793334961,21.177940870292662,47.76705793334961,21.177940870292662,47.76705793334961C21.042818870292663,47.76705793334961,20.933032870292664,47.66888793334961,20.933032870292664,47.54807793334961C20.933032870292664,47.54807793334961,20.933032870292664,46.61176393334961,20.933032870292664,46.61176393334961C20.933032870292664,46.49094973334961,21.042818870292663,46.39278793334961,21.177940870292662,46.39278793334961C21.177940870292662,46.39278793334961,36.74223287029267,46.39278793334961,36.74223287029267,46.39278793334961C36.87733287029266,46.39278793334961,36.98713287029266,46.49094973334961,36.98713287029266,46.61176393334961C36.98713287029266,46.61176393334961,36.98713287029266,47.54807793334961,36.98713287029266,47.54807793334961C36.98713287029266,47.54807793334961,36.98713287029266,47.54807793334961,36.98713287029266,47.54807793334961Z" fill="url(#master_svg5_0_9481)" fill-opacity="1"/></g></g></g><g><g><g><path d="M20.933032870292664,48.32582092285156C20.933032870292664,48.32582092285156,37.36383287029267,48.32582092285156,37.36383287029267,48.32582092285156C37.36383287029267,48.32582092285156,20.933032870292664,48.32582092285156,20.933032870292664,48.32582092285156C20.933032870292664,48.32582092285156,20.933032870292664,48.32582092285156,20.933032870292664,48.32582092285156Z" fill="url(#master_svg6_0_9477)" fill-opacity="1"/></g></g></g><g><g><g><path d="M36.98713287029266,50.44762932495117C36.97873287029266,50.56843932495117,36.86893287029267,50.666609324951175,36.74223287029267,50.666609324951175C36.74223287029267,50.666609324951175,21.177940870292662,50.666609324951175,21.177940870292662,50.666609324951175C21.042818870292663,50.666609324951175,20.933032870292664,50.56843932495117,20.933032870292664,50.44762932495117C20.933032870292664,50.44762932495117,20.933032870292664,49.51131532495117,20.933032870292664,49.51131532495117C20.933032870292664,49.39050112495117,21.042818870292663,49.29233932495117,21.177940870292662,49.29233932495117C21.177940870292662,49.29233932495117,36.74223287029267,49.29233932495117,36.74223287029267,49.29233932495117C36.87733287029266,49.29233932495117,36.98713287029266,49.39050112495117,36.98713287029266,49.51131532495117C36.98713287029266,49.51131532495117,36.98713287029266,50.44762932495117,36.98713287029266,50.44762932495117C36.98713287029266,50.44762932495117,36.98713287029266,50.44762932495117,36.98713287029266,50.44762932495117Z" fill="url(#master_svg7_0_9483)" fill-opacity="1"/></g></g></g><g><g><g><path d="M20.933032870292664,50.258853912353516C20.933032870292664,50.258853912353516,37.36383287029267,50.258853912353516,37.36383287029267,50.258853912353516C37.36383287029267,50.258853912353516,20.933032870292664,50.258853912353516,20.933032870292664,50.258853912353516C20.933032870292664,50.258853912353516,20.933032870292664,50.258853912353516,20.933032870292664,50.258853912353516Z" fill="url(#master_svg8_0_9477)" fill-opacity="1"/></g></g></g><g><g><g><path d="M36.98713287029266,54.31369530395508C36.97873287029266,54.43450530395508,36.86893287029267,54.53267530395508,36.74223287029267,54.53267530395508C36.74223287029267,54.53267530395508,21.177940870292662,54.53267530395508,21.177940870292662,54.53267530395508C21.042818870292663,54.53267530395508,20.933032870292664,54.43450530395508,20.933032870292664,54.31369530395508C20.933032870292664,54.31369530395508,20.933032870292664,53.377381303955076,20.933032870292664,53.377381303955076C20.933032870292664,53.25656710395508,21.042818870292663,53.15840530395508,21.177940870292662,53.15840530395508C21.177940870292662,53.15840530395508,36.74223287029267,53.15840530395508,36.74223287029267,53.15840530395508C36.87733287029266,53.15840530395508,36.98713287029266,53.25656710395508,36.98713287029266,53.377381303955076C36.98713287029266,53.377381303955076,36.98713287029266,54.31369530395508,36.98713287029266,54.31369530395508C36.98713287029266,54.31369530395508,36.98713287029266,54.31369530395508,36.98713287029266,54.31369530395508Z" fill="url(#master_svg9_0_9485)" fill-opacity="1"/></g></g></g><g><g><g><path d="M20.933032870292664,53.15840530395508C20.933032870292664,53.15840530395508,37.36383287029267,53.15840530395508,37.36383287029267,53.15840530395508C37.36383287029267,53.15840530395508,20.933032870292664,53.15840530395508,20.933032870292664,53.15840530395508C20.933032870292664,53.15840530395508,20.933032870292664,53.15840530395508,20.933032870292664,53.15840530395508Z" fill="url(#master_svga_0_9477)" fill-opacity="1"/></g></g></g><g><g><g><path d="M36.98713287029266,55.28020989135742C36.97873287029266,55.40101989135742,36.86893287029267,55.499189891357425,36.74223287029267,55.499189891357425C36.74223287029267,55.499189891357425,21.177940870292662,55.499189891357425,21.177940870292662,55.499189891357425C21.042818870292663,55.499189891357425,20.933032870292664,55.40101989135742,20.933032870292664,55.28020989135742C20.933032870292664,55.28020989135742,20.933032870292664,54.34389589135742,20.933032870292664,54.34389589135742C20.933032870292664,54.22308169135742,21.042818870292663,54.12491989135742,21.177940870292662,54.12491989135742C21.177940870292662,54.12491989135742,36.74223287029267,54.12491989135742,36.74223287029267,54.12491989135742C36.87733287029266,54.12491989135742,36.98713287029266,54.22308169135742,36.98713287029266,54.34389589135742C36.98713287029266,54.34389589135742,36.98713287029266,55.28020989135742,36.98713287029266,55.28020989135742C36.98713287029266,55.28020989135742,36.98713287029266,55.28020989135742,36.98713287029266,55.28020989135742Z" fill="url(#master_svgb_0_9487)" fill-opacity="1"/></g></g></g><g><g><g><path d="M20.933032870292664,55.09143829345703C20.933032870292664,55.09143829345703,37.36383287029267,55.09143829345703,37.36383287029267,55.09143829345703C37.36383287029267,55.09143829345703,20.933032870292664,55.09143829345703,20.933032870292664,55.09143829345703C20.933032870292664,55.09143829345703,20.933032870292664,55.09143829345703,20.933032870292664,55.09143829345703Z" fill="url(#master_svgc_0_9477)" fill-opacity="1"/></g></g></g><g><g><g><path d="M38.706765740585325,31.561026956176757C38.71566574058533,32.02296695617676,38.33236574058533,32.40494695617676,37.86876574058533,32.40494695617676C37.86876574058533,32.40494695617676,23.712921740585326,32.40494695617676,23.712921740585326,32.40494695617676C23.249379740585326,32.40494695617676,22.866065740585327,32.02296695617676,22.866065740585327,31.561026956176757C22.866065740585327,31.561026956176757,22.866065740585327,25.973351956176757,22.866065740585327,25.973351956176757C22.866065740585327,25.511413956176757,23.249379740585326,25.129426956176758,23.712921740585326,25.129426956176758C23.712921740585326,25.129426956176758,37.85986574058533,25.129426956176758,37.85986574058533,25.129426956176758C38.32336574058533,25.129426956176758,38.706765740585325,25.511413956176757,38.706765740585325,25.973351956176757C38.706765740585325,25.973351956176757,38.706765740585325,31.561026956176757,38.706765740585325,31.561026956176757C38.706765740585325,31.561026956176757,38.706765740585325,31.561026956176757,38.706765740585325,31.561026956176757Z" fill="url(#master_svgd_0_9489)" fill-opacity="1"/></g></g></g><g><g><g><path d="M36.99708199691773,30.844303450927733C36.988881996917726,31.210233450927735,36.70808199691773,31.506463450927733,36.36118199691772,31.506463450927733C36.36118199691772,31.506463450927733,24.460250996917726,31.506463450927733,24.460250996917726,31.506463450927733C24.113380996917726,31.506463450927733,23.832581996917725,31.210233450927735,23.832581996917725,30.844303450927733C23.832581996917725,30.844303450927733,23.832581996917725,26.758100450927735,23.832581996917725,26.758100450927735C23.832581996917725,26.392171450927734,24.113380996917726,26.095943450927734,24.460250996917726,26.095943450927734C24.460250996917726,26.095943450927734,36.36948199691773,26.095943450927734,36.36948199691773,26.095943450927734C36.71628199691772,26.095943450927734,36.99708199691773,26.392171450927734,36.99708199691773,26.758100450927735C36.99708199691773,26.758100450927735,36.99708199691773,30.844303450927733,36.99708199691773,30.844303450927733C36.99708199691773,30.844303450927733,36.99708199691773,30.844303450927733,36.99708199691773,30.844303450927733Z" fill="url(#master_svge_0_9491)" fill-opacity="1"/></g></g></g><g><g><g><path d="M25.7555474916687,26.09594345092774C25.7555474916687,26.09594345092774,24.7990984916687,26.095943450927734,24.7990984916687,26.095943450927734C24.7990984916687,26.095943450927734,27.5929384916687,31.497743450927736,27.5929384916687,31.497743450927736C27.5929384916687,31.497743450927736,28.5493884916687,31.497743450927736,28.5493884916687,31.497743450927736C28.5493884916687,31.497743450927736,25.7555474916687,26.09594345092774,25.7555474916687,26.09594345092774C25.7555474916687,26.09594345092774,25.7555474916687,26.09594345092774,25.7555474916687,26.09594345092774ZM27.6348884916687,26.09594345092774C27.6348884916687,26.09594345092774,26.6784384916687,26.095943450927734,26.6784384916687,26.095943450927734C26.6784384916687,26.095943450927734,29.4638784916687,31.497743450927736,29.4638784916687,31.497743450927736C29.4638784916687,31.497743450927736,30.420328491668702,31.497743450927736,30.420328491668702,31.497743450927736C30.420328491668702,31.497743450927736,27.6348884916687,26.09594345092774,27.6348884916687,26.09594345092774C27.6348884916687,26.09594345092774,27.6348884916687,26.09594345092774,27.6348884916687,26.09594345092774ZM33.113488491668704,26.09594345092774C33.113488491668704,26.09594345092774,32.1570384916687,26.095943450927734,32.1570384916687,26.095943450927734C32.1570384916687,26.095943450927734,34.9508984916687,31.497743450927736,34.9508984916687,31.497743450927736C34.9508984916687,31.497743450927736,35.9072984916687,31.497743450927736,35.9072984916687,31.497743450927736C35.9072984916687,31.497743450927736,33.113488491668704,26.09594345092774,33.113488491668704,26.09594345092774C33.113488491668704,26.09594345092774,33.113488491668704,26.09594345092774,33.113488491668704,26.09594345092774Z" fill="url(#master_svgf_0_9493)" fill-opacity="1"/></g></g></g><g><g><g><path d="M22.866065740585327,37.364799996337894C22.866065740585327,38.78428999633789,24.016785740585327,39.93501999633789,25.436275740585327,39.93501999633789C26.855765740585326,39.93501999633789,28.00649574058533,38.78428999633789,28.00649574058533,37.364799996337894C28.00649574058533,35.94530999633789,26.855765740585326,34.79458999633789,25.436275740585327,34.79458999633789C24.016785740585327,34.79458999633789,22.866065740585327,35.94530999633789,22.866065740585327,37.364799996337894C22.866065740585327,37.364799996337894,22.866065740585327,37.364799996337894,22.866065740585327,37.364799996337894Z" fill="url(#master_svgg_0_9495)" fill-opacity="1"/></g></g></g><g><g><g><path d="M31.56471347808838,37.364799996337894C31.56471347808838,38.78428999633789,32.81133347808838,39.93501999633789,34.34911347808838,39.93501999633789C35.88689347808838,39.93501999633789,37.13351347808838,38.78428999633789,37.13351347808838,37.364799996337894C37.13351347808838,35.94530999633789,35.88689347808838,34.79458999633789,34.34911347808838,34.79458999633789C32.81133347808838,34.79458999633789,31.56471347808838,35.94530999633789,31.56471347808838,37.364799996337894C31.56471347808838,37.364799996337894,31.56471347808838,37.364799996337894,31.56471347808838,37.364799996337894Z" fill="url(#master_svgh_0_9497)" fill-opacity="1"/></g></g></g><g><g><g><path d="M27.668448491668702,19.55467623913574C27.668448491668702,19.32923923913574,27.4922584916687,19.153898239135742,27.274118491668702,19.153898239135742C27.274118491668702,19.153898239135742,25.2018134916687,19.153898239135742,25.2018134916687,19.153898239135742C24.9836764916687,19.153898239135742,24.7990984916687,19.32923923913574,24.7990984916687,19.55467623913574C24.7990984916687,19.55467623913574,24.7990984916687,21.667118239135743,24.7990984916687,21.667118239135743C24.7990984916687,21.667118239135743,27.668448491668702,21.667118239135743,27.668448491668702,21.667118239135743C27.668448491668702,21.667118239135743,27.668448491668702,19.55467623913574,27.668448491668702,19.55467623913574C27.668448491668702,19.55467623913574,27.668448491668702,19.55467623913574,27.668448491668702,19.55467623913574ZM35.7310984916687,20.58167823913574C35.7310984916687,19.788465239135743,35.0934984916687,19.153898239135742,34.296468491668705,19.153898239135742C33.5078184916687,19.153898239135742,32.861788491668705,19.796814239135742,32.861788491668705,20.58167823913574C32.861788491668705,20.58167823913574,32.861788491668705,21.658768239135743,32.861788491668705,21.658768239135743C32.861788491668705,21.658768239135743,35.7310984916687,21.658768239135743,35.7310984916687,21.658768239135743C35.7310984916687,21.658768239135743,35.7310984916687,20.58167823913574,35.7310984916687,20.58167823913574C35.7310984916687,20.58167823913574,35.7310984916687,20.58167823913574,35.7310984916687,20.58167823913574Z" fill="url(#master_svgi_0_9499)" fill-opacity="1"/></g></g></g><g><g><g><path d="M26.334448491668702,18.930832989501955C26.334448491668702,18.930832989501955,26.0324184916687,1.9330329895019531,26.0324184916687,1.9330329895019531C26.0324184916687,1.9330329895019531,25.101134491668702,1.9330329895019531,25.101134491668702,1.9330329895019531C25.101134491668702,1.9330329895019531,24.7990984916687,18.930832989501955,24.7990984916687,18.930832989501955C24.7990984916687,18.930832989501955,26.334448491668702,18.930832989501955,26.334448491668702,18.930832989501955C26.334448491668702,18.930832989501955,26.334448491668702,18.930832989501955,26.334448491668702,18.930832989501955Z" fill="url(#master_svgj_0_9501)" fill-opacity="1"/></g></g></g><g><g><g><path d="M26.328158491668702,18.43363298950195C26.328158491668702,18.43363298950195,26.334448491668702,18.848032989501952,26.334448491668702,18.848032989501952C26.334448491668702,18.848032989501952,24.7990984916687,18.848032989501952,24.7990984916687,18.848032989501952C24.7990984916687,18.848032989501952,24.805390911668702,18.43363298950195,24.805390911668702,18.43363298950195C24.805390911668702,18.43363298950195,26.328158491668702,18.43363298950195,26.328158491668702,18.43363298950195C26.328158491668702,18.43363298950195,26.328158491668702,18.43363298950195,26.328158491668702,18.43363298950195ZM26.3092784916687,17.596532989501952C26.3092784916687,17.596532989501952,26.3155684916687,18.010932989501953,26.3155684916687,18.010932989501953C26.3155684916687,18.010932989501953,24.8116832916687,18.010932989501953,24.8116832916687,18.010932989501953C24.8116832916687,18.010932989501953,24.8179757916687,17.596532989501952,24.8179757916687,17.596532989501952C24.8179757916687,17.596532989501952,26.3092784916687,17.596532989501952,26.3092784916687,17.596532989501952C26.3092784916687,17.596532989501952,26.3092784916687,17.596532989501952,26.3092784916687,17.596532989501952ZM26.2966984916687,16.759532989501952C26.2966984916687,16.759532989501952,26.3029884916687,17.173932989501953,26.3029884916687,17.173932989501953C26.3029884916687,17.173932989501953,24.8305605916687,17.173932989501953,24.8305605916687,17.173932989501953C24.8305605916687,17.173932989501953,24.8368529916687,16.759532989501952,24.8368529916687,16.759532989501952C24.8368529916687,16.759532989501952,26.2966984916687,16.759532989501952,26.2966984916687,16.759532989501952C26.2966984916687,16.759532989501952,26.2966984916687,16.759532989501952,26.2966984916687,16.759532989501952ZM26.2841084916687,15.955632989501954C26.2841084916687,15.955632989501954,26.2903984916687,16.37003298950195,26.2903984916687,16.37003298950195C26.2903984916687,16.37003298950195,24.8431454916687,16.37003298950195,24.8431454916687,16.37003298950195C24.8431454916687,16.37003298950195,24.8494378916687,15.955632989501954,24.8494378916687,15.955632989501954C24.8494378916687,15.955632989501954,26.2841084916687,15.955632989501954,26.2841084916687,15.955632989501954C26.2841084916687,15.955632989501954,26.2841084916687,15.955632989501954,26.2841084916687,15.955632989501954ZM26.0324184916687,1.9330329895019531C26.0324184916687,1.9330329895019531,26.0449984916687,2.347411989501953,26.0449984916687,2.347411989501953C26.0449984916687,2.347411989501953,25.088550491668702,2.347411989501953,25.088550491668702,2.347411989501953C25.088550491668702,2.347411989501953,25.0948424916687,1.9330329895019531,25.0948424916687,1.9330329895019531C25.0948424916687,1.9330329895019531,26.0324184916687,1.9330329895019531,26.0324184916687,1.9330329895019531C26.0324184916687,1.9330329895019531,26.0324184916687,1.9330329895019531,26.0324184916687,1.9330329895019531Z" fill="url(#master_svgk_0_9503)" fill-opacity="1"/></g></g></g></g></g></svg>