<svg xmlns="http://www.w3.org/2000/svg" xmlns:xlink="http://www.w3.org/1999/xlink" fill="none" version="1.1" width="60" height="60" viewBox="0 0 60 60"><defs><linearGradient x1="-0.0071152751334011555" y1="-0.006640984211117029" x2="1" y2="1" id="master_svg0_0_9509"><stop offset="0%" stop-color="#80FFFF" stop-opacity="1"/><stop offset="100%" stop-color="#02A7F0" stop-opacity="1"/></linearGradient><linearGradient x1="-0.005612184759229422" y1="-0.0007926828693598509" x2="1.0036441087722778" y2="1.0045732259750366" id="master_svg1_0_9511"><stop offset="0%" stop-color="#80FFFF" stop-opacity="1"/><stop offset="100%" stop-color="#02A7F0" stop-opacity="1"/></linearGradient></defs><g style="mix-blend-mode:passthrough"><g style="mix-blend-mode:passthrough"><rect x="0" y="0" width="60" height="60" rx="0" fill="#D8D8D8" fill-opacity="0"/></g><g><g><g><g><path d="M35.782,51.7757C35.782,51.7757,13.000000000000007,51.7757,13.000000000000007,51.7757C13.000000000000007,51.7757,13.000000000000007,54.5303,13.000000000000007,54.5303C13.000000000000007,55.1688,13.244968,55.6478,13.653247,56.1267C14.143180000000001,56.6057,14.63312,56.7653,15.28636,56.7757C15.28636,56.7757,33.495599999999996,56.7757,33.495599999999996,56.7757C34.1489,56.7653,34.6388,56.5258,35.128699999999995,56.1267C35.618700000000004,55.7276,35.782,55.1688,35.782,54.5303C35.782,54.5303,35.782,51.7757,35.782,51.7757C35.782,51.7757,35.782,51.7757,35.782,51.7757ZM35.8375,28.18852C35.782,26.67188,35.537,24.75612,34.9654,23C34.9654,23,13.816558,23,13.816558,23C13.326623,24.75612,12.9999999452172,26.67188,13.000000000000007,28.1087C13.000000000000007,28.1087,13.000000000000007,48.7757,13.000000000000007,48.7757C13.000000000000007,48.7757,35.8375,48.7757,35.8375,48.7757C35.8375,48.7757,35.8375,28.18852,35.8375,28.18852C35.8375,28.18852,35.8375,28.18852,35.8375,28.18852Z" fill="url(#master_svg0_0_9509)" fill-opacity="1"/></g></g></g><g><g><g><path d="M43.0705,31.333C43.0705,31.333,41.8512,32.546,41.8512,32.546C41.2009,31.7373,40.6319,30.8478,40.2255,29.8774C39.0061,27.3705,38.681,24.5402,38.5184,21.7907C38.4371,20.3351,38.4371,18.7986,38.5184,17.343C38.5997,16.0492,38.843599999999995,14.7553,38.762299999999996,13.38056C38.762299999999996,12.00582,38.5184,10.71195,37.7868,9.57982C37.0553,8.52855,35.9172,7.63901,34.697900000000004,7.23468C32.665800000000004,6.58774,30.5523,6.66861,28.5201,7.23468C28.5201,7.23468,28.5201,7.15381,28.5201,7.15381C28.5201,6.83034,28.2763,6.66861,28.0324,6.66861C28.0324,6.66861,27.5447,6.66861,27.5447,6.66861C26.9757,5.13214,25.5125,4,23.805500000000002,4C22.261,4,20.9604,4.889536,20.2289,6.102539999999999C17.95282,6.102539999999999,13.563320000000001,6.102539999999999,10.23056,5.94081C9.580262,5.85994,9.580262,5.94081,9.255114,6.26427C8.9299663,6.66861,8.9299663,8.04334,9.173827,8.28595C9.255114,8.366810000000001,9.417688,8.44768,9.580262,8.44768C9.580262,8.44768,11.12471,7.88161,18.6844,7.88161C18.92826,7.88161,19.1721,8.205079999999999,18.76569,8.44768C17.4651,9.256350000000001,13.31946,10.792819999999999,11.93758,11.43975C11.61244,11.60149,11.36858,11.84409,11.28729,12.08669C11.206,12.41016,11.206,12.89536,11.12471,13.29969C11.12471,13.62316,11.53115,13.86576,11.856300000000001,13.70403C13.64461,12.73362,16.32708,10.954550000000001,19.822400000000002,9.74155C19.9037,9.74155,20.0663,9.66068,20.1476,9.66068C20.3101,10.06502,20.554000000000002,10.388480000000001,20.7979,10.63109C20.7979,10.63109,20.7979,15.4831,20.7979,15.4831C20.7979,15.4831,20.7166,15.4831,20.7166,15.4831C18.35926,16.210900000000002,16.48966,17.828200000000002,15.026489999999999,19.849899999999998C14.86392,20.0925,14.620049999999999,20.416,14.45748,20.9685C14.45748,20.9685,33.803799999999995,20.9685,33.803799999999995,20.9685C33.5599,20.2542,33.2348,19.769,32.9096,19.3647C31.4465,17.5856,29.333,16.4535,26.5692,15.4831C26.5692,15.4831,26.5692,10.71195,26.5692,10.71195C26.8131,10.46935,26.9757,10.22675,27.1383,9.98415C27.1383,9.98415,27.9511,9.98415,27.9511,9.98415C28.2763,9.98415,28.4388,9.74155,28.4388,9.49895C28.4388,9.49895,28.4388,8.85201,28.4388,8.85201C30.1459,8.366810000000001,32.0155,8.12421,33.6412,8.60941C34.6167,8.85201,35.5108,9.337209999999999,36.161100000000005,10.06502C36.8114,10.87369,37.0553,11.84409,37.1365,12.81449C37.2178,14.1084,37.0553,15.4022,36.892700000000005,16.6961C36.7301,18.151699999999998,36.8114,19.607300000000002,36.8114,21.1438C36.892700000000005,23.9741,37.1365,27.0471,38.2746,29.7157C38.843599999999995,31.0904,39.656400000000005,32.384299999999996,40.5506,33.597300000000004C40.5506,33.597300000000004,40.2255,33.9207,40.2255,33.9207C40.2255,33.9207,39.3313,34.8103,39.3313,34.8103C39.3313,34.8103,46.4846,43.7865,46.4846,43.7865C46.4846,43.7865,51.6056,39.0962,51.6056,39.0962C51.6056,39.0962,43.0705,31.333,43.0705,31.333C43.0705,31.333,43.0705,31.333,43.0705,31.333Z" fill="url(#master_svg1_0_9511)" fill-opacity="1"/></g></g></g></g></g></svg>