<svg xmlns="http://www.w3.org/2000/svg" xmlns:xlink="http://www.w3.org/1999/xlink" fill="none" version="1.1" width="60" height="60" viewBox="0 0 60 60"><defs><linearGradient x1="-0.005859512835741043" y1="-0.020250026136636734" x2="1.0062124729156494" y2="1.0125013589859009" id="master_svg0_0_9517"><stop offset="0%" stop-color="#80FFFF" stop-opacity="1"/><stop offset="100%" stop-color="#02A7F0" stop-opacity="1"/></linearGradient><linearGradient x1="-0.09691119939088821" y1="-0.012769353576004505" x2="1.0891891717910767" y2="1.0087789297103882" id="master_svg1_0_9519"><stop offset="0%" stop-color="#80FFFF" stop-opacity="1"/><stop offset="100%" stop-color="#02A7F0" stop-opacity="1"/></linearGradient><linearGradient x1="-0.007271443493664265" y1="-0.008619679138064384" x2="1.00480055809021" y2="1.002859354019165" id="master_svg2_0_9521"><stop offset="0%" stop-color="#80FFFF" stop-opacity="1"/><stop offset="100%" stop-color="#02A7F0" stop-opacity="1"/></linearGradient><linearGradient x1="-0.11722487956285477" y1="-0.022664625197649002" x2="1.1076555252075195" y2="1.0750383138656616" id="master_svg3_0_9523"><stop offset="0%" stop-color="#80FFFF" stop-opacity="1"/><stop offset="100%" stop-color="#02A7F0" stop-opacity="1"/></linearGradient><linearGradient x1="-0.005859512835741043" y1="-0.010526316240429878" x2="1.0062124729156494" y2="1" id="master_svg4_0_9525"><stop offset="0%" stop-color="#80FFFF" stop-opacity="1"/><stop offset="100%" stop-color="#02A7F0" stop-opacity="1"/></linearGradient><linearGradient x1="0" y1="0" x2="0" y2="0" id="master_svg5_0_9477"><stop offset="0%" stop-color="#80FFFF" stop-opacity="1"/><stop offset="100%" stop-color="#02A7F0" stop-opacity="1"/></linearGradient><linearGradient x1="-0.010473815724253654" y1="-0.14166666567325592" x2="1.0109726190567017" y2="1.2805556058883667" id="master_svg6_0_9527"><stop offset="0%" stop-color="#80FFFF" stop-opacity="1"/><stop offset="100%" stop-color="#02A7F0" stop-opacity="1"/></linearGradient><linearGradient x1="0" y1="0" x2="0" y2="0" id="master_svg7_0_9477"><stop offset="0%" stop-color="#80FFFF" stop-opacity="1"/><stop offset="100%" stop-color="#02A7F0" stop-opacity="1"/></linearGradient><linearGradient x1="-0.010473815724253654" y1="-0.21666666865348816" x2="1.0109726190567017" y2="1.2055555582046509" id="master_svg8_0_9529"><stop offset="0%" stop-color="#80FFFF" stop-opacity="1"/><stop offset="100%" stop-color="#02A7F0" stop-opacity="1"/></linearGradient><linearGradient x1="0" y1="0" x2="0" y2="0" id="master_svg9_0_9477"><stop offset="0%" stop-color="#80FFFF" stop-opacity="1"/><stop offset="100%" stop-color="#02A7F0" stop-opacity="1"/></linearGradient><linearGradient x1="-0.010473815724253654" y1="-0.2916666567325592" x2="1.0109726190567017" y2="1.130555510520935" id="master_svga_0_9531"><stop offset="0%" stop-color="#80FFFF" stop-opacity="1"/><stop offset="100%" stop-color="#02A7F0" stop-opacity="1"/></linearGradient><linearGradient x1="0" y1="0" x2="0" y2="0" id="master_svgb_0_9477"><stop offset="0%" stop-color="#80FFFF" stop-opacity="1"/><stop offset="100%" stop-color="#02A7F0" stop-opacity="1"/></linearGradient><linearGradient x1="-0.010473815724253654" y1="0" x2="1.0109726190567017" y2="1.0549451112747192" id="master_svgc_0_9533"><stop offset="0%" stop-color="#80FFFF" stop-opacity="1"/><stop offset="100%" stop-color="#02A7F0" stop-opacity="1"/></linearGradient><linearGradient x1="0" y1="0" x2="0" y2="0" id="master_svgd_0_9477"><stop offset="0%" stop-color="#80FFFF" stop-opacity="1"/><stop offset="100%" stop-color="#02A7F0" stop-opacity="1"/></linearGradient><linearGradient x1="-0.010473815724253654" y1="-0.31805557012557983" x2="1.0109726190567017" y2="1.1041666269302368" id="master_svge_0_9535"><stop offset="0%" stop-color="#80FFFF" stop-opacity="1"/><stop offset="100%" stop-color="#02A7F0" stop-opacity="1"/></linearGradient><linearGradient x1="0" y1="0" x2="0" y2="0" id="master_svgf_0_9477"><stop offset="0%" stop-color="#80FFFF" stop-opacity="1"/><stop offset="100%" stop-color="#02A7F0" stop-opacity="1"/></linearGradient><linearGradient x1="-0.005859512835741043" y1="-0.15389829874038696" x2="1.0062124729156494" y2="1.0610169172286987" id="master_svgg_0_9537"><stop offset="0%" stop-color="#80FFFF" stop-opacity="1"/><stop offset="100%" stop-color="#02A7F0" stop-opacity="1"/></linearGradient></defs><g style="mix-blend-mode:passthrough"><g><g><g><g><path d="M40.7376,6C40.7376,6,19,6,19,6C19,6,19,15.77182,19,15.77182C19,15.77182,22.19196,22.3865,22.19196,22.3865C22.19196,22.3865,22.19196,54.9541,22.19196,54.9541C22.19196,55.3432,22.50656,55.6623,22.89021,55C22.89021,55,36.8781,55,36.8781,55C37.261700000000005,55.6623,37.5763,55.3432,37.5763,54.9541C37.5763,54.9541,37.5763,22.3865,37.5763,22.3865C37.5763,22.3865,40.7376,15.77182,40.7376,15.77182C40.7376,15.77182,40.7376,6,40.7376,6C40.7376,6,40.7376,6,40.7376,6Z" fill="url(#master_svg0_0_9517)" fill-opacity="1"/></g></g></g><g><g><g><path d="M32.21549,31.76562C32.21549,32.88281,31.27148,33.78906,30.10775,33.78906C28.94401,33.78906,28,32.88281,28,31.76562C28,31.76562,28,26.02344,28,26.02344C28,24.90625,28.94401,24,30.10775,24C31.27148,24,32.21549,24.90625,32.21549,26.02344C32.21549,26.02344,32.21549,31.76562,32.21549,31.76562C32.21549,31.76562,32.21549,31.76562,32.21549,31.76562Z" fill="url(#master_svg1_0_9519)" fill-opacity="1"/></g></g></g><g><g><g><path d="M39.049499999999995,4.000306472C38.85,3.99259677,38.7196,4.131371,38.7196,4.300985C38.7196,4.300985,38.7196,4.840664,38.7196,4.840664C38.7196,5.01028,38.5815,5.14134,38.4203,5.14134C38.4203,5.14134,33.1643,5.14134,33.1643,5.14134C32.9955,5.14134,32.8651,5.00257,32.8651,4.840664C32.8651,4.840664,32.8651,4.300985,32.8651,4.300985C32.8651,4.131371,32.727000000000004,4.000306472,32.565799999999996,4.000306472C32.565799999999996,4.000306472,27.9774,4.000306472,27.9774,4.000306472C27.808590000000002,4.000306472,27.678150000000002,4.139081,27.678150000000002,4.300985C27.678150000000002,4.300985,27.678150000000002,4.840664,27.678150000000002,4.840664C27.678150000000002,5.01028,27.540039999999998,5.14134,27.378909999999998,5.14134C27.378909999999998,5.14134,22.12291,5.14134,22.12291,5.14134C21.9541,5.14134,21.82366,5.00257,21.82366,4.840664C21.82366,4.840664,21.82366,4.300985,21.82366,4.300985C21.82366,4.131371,21.68555,4.000306472,21.52441,4.000306472C21.52441,4.000306472,19.299247,4.000306472,19.299247,4.000306472C19.130441,4.000306472,19,4.139081,19,4.300985C19,4.300985,19,5.74434,19,5.74434C19,5.74434,40.7376,5.74434,40.7376,5.74434C40.7376,5.74434,40.7376,4.300985,40.7376,4.300985C40.7376,4.131371,40.5995,4.000306472,40.4383,4.000306472C40.4383,4.000306472,39.049499999999995,4.000306472,39.049499999999995,4.000306472C39.049499999999995,4.000306472,39.049499999999995,4.000306472,39.049499999999995,4.000306472ZM28.25363,25.9961C28.25363,25.1095,28.974890000000002,24.3848,29.857300000000002,24.3848C30.7397,24.3848,31.460900000000002,25.1095,31.460900000000002,25.9961C31.460900000000002,25.9961,31.460900000000002,31.6627,31.460900000000002,31.6627C31.460900000000002,32.5493,30.7397,33.274100000000004,29.857300000000002,33.274100000000004C28.974890000000002,33.274100000000004,28.25363,32.5493,28.25363,31.6627C28.25363,31.6627,28.25363,25.9961,28.25363,25.9961C28.25363,25.9961,28.25363,25.9961,28.25363,25.9961ZM31.8446,25.9961C31.8446,24.8936,30.9545,23.9993,29.857300000000002,23.9993C28.76005,23.9993,27.869979999999998,24.8936,27.869979999999998,25.9961C27.869979999999998,25.9961,27.869979999999998,31.6627,27.869979999999998,31.6627C27.869979999999998,32.7652,28.76005,33.6595,29.857300000000002,33.6595C30.9545,33.6595,31.8446,32.7652,31.8446,31.6627C31.8446,31.6627,31.8446,25.9961,31.8446,25.9961C31.8446,25.9961,31.8446,25.9961,31.8446,25.9961Z" fill="url(#master_svg2_0_9521)" fill-opacity="1"/></g></g></g><g><g><g><path d="M28,26.74944C28,25.78683,28.734375,25,29.63281,25C30.53125,25,31.26562,25.78683,31.26562,26.74944C31.26562,26.74944,31.26562,28.71652,31.26562,28.71652C31.26562,29.67913,30.53125,30.46596,29.63281,30.46596C28.734375,30.46596,28,29.67913,28,28.71652C28,28.71652,28,26.74944,28,26.74944C28,26.74944,28,26.74944,28,26.74944Z" fill="url(#master_svg3_0_9523)" fill-opacity="1"/></g></g></g><g><g><g><path d="M22.19196,23.77083C22.19196,23.77083,19,16.77083,19,16.77083C19,16.77083,40.7376,16.77083,40.7376,16.77083C40.7376,16.77083,37.584,23.77083,37.584,23.77083C37.584,23.77083,22.19196,23.77083,22.19196,23.77083C22.19196,23.77083,22.19196,23.77083,22.19196,23.77083ZM19,15.770833C19,15.770833,19,15,19,15C19,15,40.7376,15,40.7376,15C40.7376,15,40.7376,15.770833,40.7376,15.770833C40.7376,15.770833,19,15.770833,19,15.770833C19,15.770833,19,15.770833,19,15.770833ZM22.17662,36.7708C22.17662,36.7708,22.17662,35.625,22.17662,35.625C22.17662,35.625,37.561,35.625,37.561,35.625C37.561,35.625,37.561,36.7708,37.561,36.7708C37.561,36.7708,22.17662,36.7708,22.17662,36.7708C22.17662,36.7708,22.17662,36.7708,22.17662,36.7708Z" fill="url(#master_svg4_0_9525)" fill-opacity="1"/></g></g></g><g><g><g><path d="M22,36C22,36,38,36,38,36C38,36,22,36,22,36C22,36,22,36,22,36Z" fill="url(#master_svg5_0_9477)" fill-opacity="1"/></g></g></g><g><g><g><path d="M22,38.40625C22,38.40625,22,37,22,37C22,37,37.6641,37,37.6641,37C37.6641,37,37.6641,38.40625,37.6641,38.40625C37.6641,38.40625,22,38.40625,22,38.40625C22,38.40625,22,38.40625,22,38.40625Z" fill="url(#master_svg6_0_9527)" fill-opacity="1"/></g></g></g><g><g><g><path d="M22,38C22,38,38,38,38,38C38,38,22,38,22,38C22,38,22,38,22,38Z" fill="url(#master_svg7_0_9477)" fill-opacity="1"/></g></g></g><g><g><g><path d="M22,41.40625C22,41.40625,22,40,22,40C22,40,37.6641,40,37.6641,40C37.6641,40,37.6641,41.40625,37.6641,41.40625C37.6641,41.40625,22,41.40625,22,41.40625C22,41.40625,22,41.40625,22,41.40625Z" fill="url(#master_svg8_0_9529)" fill-opacity="1"/></g></g></g><g><g><g><path d="M22,41C22,41,38,41,38,41C38,41,22,41,22,41C22,41,22,41,22,41Z" fill="url(#master_svg9_0_9477)" fill-opacity="1"/></g></g></g><g><g><g><path d="M22,43.40625C22,43.40625,22,42,22,42C22,42,37.6641,42,37.6641,42C37.6641,42,37.6641,43.40625,37.6641,43.40625C37.6641,43.40625,22,43.40625,22,43.40625C22,43.40625,22,43.40625,22,43.40625Z" fill="url(#master_svga_0_9531)" fill-opacity="1"/></g></g></g><g><g><g><path d="M22,43C22,43,38,43,38,43C38,43,22,43,22,43C22,43,22,43,22,43Z" fill="url(#master_svgb_0_9477)" fill-opacity="1"/></g></g></g><g><g><g><path d="M22,45.947917C22,45.947917,22,45,22,45C22,45,37.6641,45,37.6641,45C37.6641,45,37.6641,45.947917,37.6641,45.947917C37.6641,45.947917,22,45.947917,22,45.947917C22,45.947917,22,45.947917,22,45.947917Z" fill="url(#master_svgc_0_9533)" fill-opacity="1"/></g></g></g><g><g><g><path d="M22,46C22,46,38,46,38,46C38,46,22,46,22,46C22,46,22,46,22,46Z" fill="url(#master_svgd_0_9477)" fill-opacity="1"/></g></g></g><g><g><g><path d="M22,52.40625C22,52.40625,22,51,22,51C22,51,37.6641,51,37.6641,51C37.6641,51,37.6641,52.40625,37.6641,52.40625C37.6641,52.40625,22,52.40625,22,52.40625C22,52.40625,22,52.40625,22,52.40625Z" fill="url(#master_svge_0_9535)" fill-opacity="1"/></g></g></g><g><g><g><path d="M22,52C22,52,38,52,38,52C38,52,22,52,22,52C22,52,22,52,22,52Z" fill="url(#master_svgf_0_9477)" fill-opacity="1"/></g></g></g><g><g><g><path d="M19,14.46931C19,14.46931,19,13.61998,19,13.61998C19,13.61998,40.7376,13.61998,40.7376,13.61998C40.7376,13.61998,40.7376,14.46931,40.7376,14.46931C40.7376,14.46931,19,14.46931,19,14.46931C19,14.46931,19,14.46931,19,14.46931ZM19,12.820312C19,12.820312,19,12,19,12C19,12,40.7376,12,40.7376,12C40.7376,12,40.7376,12.820312,40.7376,12.820312C40.7376,12.820312,19,12.820312,19,12.820312C19,12.820312,19,12.820312,19,12.820312Z" fill="url(#master_svgg_0_9537)" fill-opacity="1"/></g></g></g></g><g style="mix-blend-mode:passthrough"><rect x="0" y="0" width="60" height="60" rx="0" fill="#D8D8D8" fill-opacity="0"/></g></g></svg>