<svg xmlns="http://www.w3.org/2000/svg" xmlns:xlink="http://www.w3.org/1999/xlink" fill="none" version="1.1" width="48.00244140625" height="57.0009765625" viewBox="0 0 48.00244140625 57.0009765625"><defs><filter id="master_svg0_5_8517" filterUnits="objectBoundingBox" color-interpolation-filters="sRGB" x="-10" y="-6" width="53.00251770019531" height="62.001007080078125"><feFlood flood-opacity="0" result="BackgroundImageFix"/><feColorMatrix in="SourceAlpha" type="matrix" values="0 0 0 0 0 0 0 0 0 0 0 0 0 0 0 0 0 0 127 0"/><feOffset dy="4" dx="0"/><feGaussianBlur stdDeviation="2.5"/><feColorMatrix type="matrix" values="0 0 0 0 0 0 0 0 0 0 0 0 0 0 0 0 0 0 0.3019607961177826 0"/><feBlend mode="normal" in2="BackgroundImageFix" result="effect1_dropShadow"/><feBlend mode="normal" in="SourceGraphic" in2="effect1_dropShadow" result="shape"/></filter><linearGradient x1="0.5" y1="0" x2="0.5" y2="1" id="master_svg1_5_8506"><stop offset="0%" stop-color="#0296FF" stop-opacity="1"/><stop offset="100%" stop-color="#0235FF" stop-opacity="1"/></linearGradient></defs><g style="mix-blend-mode:passthrough" filter="url(#master_svg0_5_8517)"><g><path d="M23.9972,3.5C14.90198,3.5,7.5,10.90198,7.5,19.9972C7.5,28.778,22.2878,44.3722,22.916800000000002,45.0333C23.198999999999998,45.3317,23.5941,45.501,24.0053,45.501C24.0134,45.501,24.0295,45.501,24.0375,45.501C24.4568,45.501,24.86,45.3075,25.1341,44.985L30.2542,39.123C37.0595,30.7938,40.5025,24.3594,40.5025,20.0053C40.5025,10.90198,33.1005,3.5,23.9972,3.5Z" fill="url(#master_svg1_5_8506)" fill-opacity="1"/><path d="M7.5,19.9972C7.5,10.90198,14.90198,3.5,23.9972,3.5C33.1005,3.5,40.5025,10.90198,40.5025,20.0053C40.5025,24.3594,37.0595,30.7938,30.2542,39.123L25.1341,44.985C24.86,45.3075,24.4568,45.501,24.0375,45.501L24.0053,45.501C23.5941,45.501,23.198999999999998,45.3317,22.916800000000002,45.0333C22.2878,44.3722,7.5,28.778,7.5,19.9972ZM29.3375,38.3485Q39.302499999999995,26.1481,39.302499999999995,20.0053Q39.302499999999995,16.8958,38.0988,14.0539Q36.9357,11.308,34.8151,9.187429999999999Q32.694500000000005,7.06686,29.9486,5.90376Q27.1067,4.7,23.9972,4.7Q20.890900000000002,4.7,18.0507,5.903560000000001Q15.306370000000001,7.06648,13.18642,9.18643Q11.06648,11.306370000000001,9.90356,14.0507Q8.7,16.890900000000002,8.7,19.9972Q8.7,25.1111,15.93558,34.8442Q19.7085,39.9194,23.7862,44.2063Q23.8758,44.301,24.0053,44.301L24.0375,44.301Q24.1406,44.301,24.2198,44.2078L29.3375,38.3485Z" fill-rule="evenodd" fill="#FFFFFF" fill-opacity="1"/></g><g><path d="M24.17609375,11.9984130859375Q24.60128375,11.9984130859375,25.01915375,12.0957184859375Q25.43701375,12.1930240859375,25.80355375,12.3576940859375Q26.17010375,12.5223650859375,26.45601375,12.7319460859375Q26.741913750000002,12.9415270859375,26.90319375,13.1511030859375Q27.28440375,13.6301530859375,27.46034375,14.206493085937499Q27.63628375,14.7828430859375,27.70959375,15.3067930859375Q27.78290375,15.9056030859375,27.78290375,16.5193730859375Q27.88553375,16.5942230859375,27.94418375,16.7139830859375Q28.00283375,16.8187730859375,28.039483750000002,16.983443085937502Q28.07614375,17.1481130859375,28.04681375,17.3876330859375Q28.01749375,17.7020030859375,27.922193749999998,17.8891330859375Q27.82689375,18.076253085937502,27.70959375,18.1810430859375Q27.57764375,18.3008030859375,27.43102375,18.3457130859375Q27.357713750000002,18.6002130859375,27.28440375,18.824763085937498Q27.21109375,19.0193730859375,27.11579375,19.2064930859375Q27.02049375,19.3936230859375,26.90319375,19.4984130859375Q26.624623749999998,19.7229630859375,26.44868375,19.8801530859375Q26.27273375,20.037333085937497,26.21409375,20.4115830859375Q26.17010375,20.6361330859375,26.184763750000002,20.8681730859375Q26.19942375,21.1002130859375,26.309393749999998,21.3322430859375Q26.41935375,21.5642830859375,26.64661375,21.7738630859375Q26.87387375,21.983443085937502,27.28440375,22.1481130859375Q27.65095375,22.2978130859375,28.08347375,22.4176130859375Q28.51599375,22.537313085937498,28.92649375,22.6945130859375Q29.33709375,22.8517130859375,29.65229375,23.0837130859375Q29.96749375,23.3158130859375,30.09949375,23.720013085937502Q30.17279375,23.959513085937502,30.20939375,24.3113130859375Q30.24609375,24.6631130859375,30.24609375,25.0224130859375Q30.24609375,25.381613085937502,30.194793750000002,25.6960130859375Q30.143493749999998,26.0104130859375,30.04079375,26.1750130859375Q29.96749375,26.279813085937498,29.62299375,26.384613085937502Q29.27839375,26.4894130859375,28.77259375,26.5867130859375Q28.266793749999998,26.6840130859375,27.64362375,26.7589130859375Q27.02049375,26.8337130859375,26.39003375,26.886113085937502Q25.75957375,26.9385130859375,25.18043375,26.968513085937502Q24.60128375,26.9984130859375,24.17609375,26.9984130859375Q23.75090375,26.9984130859375,23.18642375,26.968513085937502Q22.62194375,26.9385130859375,22.02080375,26.886113085937502Q21.41967375,26.8337130859375,20.82586375,26.7664130859375Q20.232063750000002,26.6990130859375,19.74822375,26.624113085937502Q19.26438375,26.5493130859375,18.92715975,26.4744130859375Q18.58993675,26.3996130859375,18.50196675,26.3247130859375Q18.35534775,26.2050130859375,18.27470795,25.5912130859375Q18.19406785,24.9774130859375,18.34068615,24.0044130859375Q18.41399575,23.4505130859375,18.77320975,23.1586130859375Q19.13242475,22.866713085937498,19.60893375,22.6945130859375Q20.08544375,22.5224130859375,20.59860375,22.387613085937502Q21.11177375,22.2529130859375,21.50764375,21.9984130859375Q21.81554375,21.8038030859375,21.97682375,21.6241630859375Q22.13810375,21.444523085937497,22.21141375,21.264883085937498Q22.28472375,21.0852430859375,22.28471375,20.890633085937502Q22.28471375,20.696023085937497,22.27005375,20.4565030859375Q22.24073375,20.112183085937502,22.035463749999998,19.9100930859375Q21.83020375,19.7079930859375,21.58095375,19.4984130859375Q21.46365375,19.3936230859375,21.37568375,19.2065030859375Q21.28771375,19.0193730859375,21.21440375,18.824763085937498Q21.14109375,18.6002130859375,21.06778375,18.3457230859375Q20.96515375,18.3157830859375,20.86252375,18.2409330859375Q20.77455375,18.1660830859375,20.67191375,18.0313430859375Q20.56928375,17.8966130859375,20.49597375,17.6421230859375Q20.40800375,17.3876330859375,20.42999375,17.1780530859375Q20.45199375,16.9684730859375,20.51063375,16.8187730859375Q20.56928375,16.6541030859375,20.70124375,16.5044030859375Q20.68658375,15.9355430859375,20.75988375,15.3666730859375Q20.81853375,14.8876330859375,20.97248375,14.333743085937499Q21.12643375,13.7798530859375,21.43433375,13.3457230859375Q21.71290375,12.9265580859375,22.05746375,12.6645820859375Q22.402013750000002,12.4026060859375,22.76122375,12.2529060859375Q23.12044375,12.1032050859375,23.47965375,12.0508099859375Q23.83887375,11.9984146952675,24.17609375,11.9984130859375Z" fill="#FFFFFF" fill-opacity="1"/></g></g></svg>