<svg xmlns="http://www.w3.org/2000/svg" xmlns:xlink="http://www.w3.org/1999/xlink" fill="none" version="1.1" width="48.00244140625" height="57.0009765625" viewBox="0 0 48.00244140625 57.0009765625"><defs><filter id="master_svg0_5_8529" filterUnits="objectBoundingBox" color-interpolation-filters="sRGB" x="-10" y="-6" width="53.00251770019531" height="62.001007080078125"><feFlood flood-opacity="0" result="BackgroundImageFix"/><feColorMatrix in="SourceAlpha" type="matrix" values="0 0 0 0 0 0 0 0 0 0 0 0 0 0 0 0 0 0 127 0"/><feOffset dy="4" dx="0"/><feGaussianBlur stdDeviation="2.5"/><feColorMatrix type="matrix" values="0 0 0 0 0 0 0 0 0 0 0 0 0 0 0 0 0 0 0.3019607961177826 0"/><feBlend mode="normal" in2="BackgroundImageFix" result="effect1_dropShadow"/><feBlend mode="normal" in="SourceGraphic" in2="effect1_dropShadow" result="shape"/></filter><linearGradient x1="0.5" y1="0" x2="0.5" y2="1" id="master_svg1_5_8498"><stop offset="0%" stop-color="#FFD03B" stop-opacity="1"/><stop offset="100%" stop-color="#F78800" stop-opacity="1"/></linearGradient></defs><g style="mix-blend-mode:passthrough" filter="url(#master_svg0_5_8529)"><g><path d="M23.9972,3.5C14.90198,3.5,7.5,10.90198,7.5,19.9972C7.5,28.778,22.2878,44.3722,22.916800000000002,45.0333C23.198999999999998,45.3317,23.5941,45.501,24.0053,45.501C24.0134,45.501,24.0295,45.501,24.0375,45.501C24.4568,45.501,24.86,45.3075,25.1341,44.985L30.2542,39.123C37.0595,30.7938,40.5025,24.3594,40.5025,20.0053C40.5025,10.90198,33.1005,3.5,23.9972,3.5Z" fill="url(#master_svg1_5_8498)" fill-opacity="1"/><path d="M7.5,19.9972C7.5,10.90198,14.90198,3.5,23.9972,3.5C33.1005,3.5,40.5025,10.90198,40.5025,20.0053C40.5025,24.3594,37.0595,30.7938,30.2542,39.123L25.1341,44.985C24.86,45.3075,24.4568,45.501,24.0375,45.501L24.0053,45.501C23.5941,45.501,23.198999999999998,45.3317,22.916800000000002,45.0333C22.2878,44.3722,7.5,28.778,7.5,19.9972ZM29.3375,38.3485Q39.302499999999995,26.1481,39.302499999999995,20.0053Q39.302499999999995,16.8958,38.0988,14.0539Q36.9357,11.308,34.8151,9.187429999999999Q32.694500000000005,7.06686,29.9486,5.90376Q27.1067,4.7,23.9972,4.7Q20.890900000000002,4.7,18.0507,5.903560000000001Q15.306370000000001,7.06648,13.18642,9.18643Q11.06648,11.306370000000001,9.90356,14.0507Q8.7,16.890900000000002,8.7,19.9972Q8.7,25.1111,15.93558,34.8442Q19.7085,39.9194,23.7862,44.2063Q23.8758,44.301,24.0053,44.301L24.0375,44.301Q24.1406,44.301,24.2198,44.2078L29.3375,38.3485Z" fill-rule="evenodd" fill="#FFFFFF" fill-opacity="1"/></g><g><path d="M16.080641,27.497799999999998C15.759961,27.497799999999998,15.5,27.224,15.5,26.8861C15.5,26.5531,15.752583,26.2823,16.066932,26.2746L16.080641,26.2745L16.68361,26.2745L16.68361,13.75852C16.68361,12.52365,17.62439,11.5202558,18.7921,11.500306905L18.82753,11.5L24.18734,11.5C25.359569999999998,11.5,26.311999999999998,12.491059,26.331,13.72118L26.3313,13.75852L26.3313,15.62479L32.712900000000005,18.02894C33.0148,18.142699999999998,33.1721,18.49278,33.064099999999996,18.81088C32.9577,19.12431,32.6335,19.28973,32.3352,19.18571L32.321799999999996,19.180880000000002L32.2494,19.153570000000002L32.2494,26.2744L32.919399999999996,26.2744C33.239999999999995,26.2744,33.5,26.548299999999998,33.5,26.8861C33.5,27.219099999999997,33.2474,27.490000000000002,32.933099999999996,27.497700000000002L32.919399999999996,27.497799999999998L31.7179,27.497799999999998C31.6852,27.5007,31.6523,27.5007,31.6196,27.497799999999998L16.080641,27.497799999999998ZM26.3313,16.92402L26.3313,26.2744L31.0881,26.2744L31.0881,18.71606L26.3313,16.92402ZM22.02115,22.7926L21.038429999999998,22.7926C20.79423,22.7926,20.59581,22.9991,20.59186,23.2554L20.59181,23.263199999999998L20.59181,24.2982C20.59181,24.555500000000002,20.78779,24.7646,21.03103,24.768700000000003L21.03841,24.7688L22.02113,24.7688C22.26532,24.7688,22.46375,24.5623,22.46769,24.305999999999997L22.46775,24.2982L22.46775,23.263199999999998C22.46775,23.0033,22.267789999999998,22.7926,22.02115,22.7926ZM29.2122,20.91048C29.4589,20.91048,29.6588,21.121180000000003,29.6588,21.38107L29.6588,22.4161C29.6588,22.676000000000002,29.4589,22.886699999999998,29.2122,22.886699999999998L28.2295,22.886699999999998C27.982799999999997,22.886699999999998,27.782899999999998,22.676000000000002,27.782899999999998,22.4161L27.782899999999998,21.38107C27.782899999999998,21.121180000000003,27.982799999999997,20.91048,28.2295,20.91048L29.2122,20.91048ZM22.02115,18.934269999999998L21.038429999999998,18.934269999999998C20.79423,18.934269999999998,20.59581,19.14078,20.59186,19.39709L20.59181,19.40486L20.59181,20.43989C20.59181,20.697200000000002,20.78779,20.90626,21.03103,20.910420000000002L21.03841,20.91048L22.02113,20.91048C22.26532,20.91048,22.46375,20.703989999999997,22.46769,20.447670000000002L22.46775,20.43989L22.46775,19.40486C22.46775,19.14497,22.267789999999998,18.934269999999998,22.02115,18.934269999999998ZM22.02115,15.07598L21.038429999999998,15.07598C20.79423,15.07598,20.59581,15.28249,20.59186,15.538789999999999L20.59181,15.54657L20.59181,16.5816C20.59181,16.83889,20.78779,17.04797,21.03103,17.052120000000002L21.03841,17.05219L22.02113,17.05219C22.26532,17.05219,22.46375,16.84568,22.46769,16.58937L22.46775,16.5816L22.46775,15.54657C22.46775,15.28668,22.267789999999998,15.07598,22.02115,15.07598Z" fill="#FFFFFF" fill-opacity="1"/></g></g></svg>