<svg xmlns="http://www.w3.org/2000/svg" xmlns:xlink="http://www.w3.org/1999/xlink" fill="none" version="1.1" width="30" height="30" viewBox="0 0 30 30"><defs><linearGradient x1="-0.0053452542051672935" y1="-0.004937674384564161" x2="1.0053461790084839" y2="1" id="master_svg0_0_10922"><stop offset="0%" stop-color="#D9001B" stop-opacity="1"/><stop offset="100%" stop-color="#6D000E" stop-opacity="1"/></linearGradient></defs><g><g style="mix-blend-mode:passthrough"><rect x="0" y="0" width="30" height="30" rx="0" fill="#D8D8D8" fill-opacity="0"/></g><g><g><path d="M0.895417,20.8615C0.895417,20.8615,10.9301,2.8999,10.9301,2.8999C13.0902,-0.966616,16.5925,-0.966653,18.7526,2.8999C18.7526,2.8999,28.7873,20.8615,28.7873,20.8615C30.9474,24.728,29.065,27.8624,24.5832,27.8624C24.5832,27.8624,5.09948,27.8624,5.09948,27.8624C0.617516,27.8624,-1.26468,24.728,0.895417,20.8615C0.895417,20.8615,0.895417,20.8615,0.895417,20.8615ZM16.4647,8.68382C16.4647,7.80148,15.7381,7.08616,14.8413,7.08616C13.9448,7.08616,13.2179,7.80196,13.2179,8.68382C13.2179,8.68382,13.2179,16.6757,13.2179,16.6757C13.2179,17.5581,13.9446,18.2734,14.8413,18.2734C15.7379,18.2734,16.4647,17.5576,16.4647,16.6757C16.4647,16.6757,16.4647,8.68386,16.4647,8.68386C16.4647,8.68386,16.4647,8.68382,16.4647,8.68382ZM16.4647,24.6661C16.4647,24.6661,16.4647,21.4697,16.4647,21.4697C16.4647,21.4697,13.2179,21.4697,13.2179,21.4697C13.2179,21.4697,13.2179,24.6661,13.2179,24.6661C13.2179,24.6661,16.4647,24.6661,16.4647,24.6661C16.4647,24.6661,16.4647,24.6661,16.4647,24.6661Z" fill="url(#master_svg0_0_10922)" fill-opacity="1"/></g></g></g></svg>