<svg xmlns="http://www.w3.org/2000/svg" xmlns:xlink="http://www.w3.org/1999/xlink" fill="none" version="1.1" width="40" height="40" viewBox="0 0 40 40"><defs><linearGradient x1="-0.00561253959313035" y1="-0.005600066855549812" x2="1.0055946111679077" y2="1.0056120157241821" id="master_svg0_0_10475"><stop offset="0%" stop-color="#80FFFF" stop-opacity="1"/><stop offset="100%" stop-color="#02A7F0" stop-opacity="1"/></linearGradient></defs><g><g style="mix-blend-mode:passthrough"><rect x="0" y="0" width="40" height="39.90660858154297" rx="0" fill="#D8D8D8" fill-opacity="0"/></g><g><path d="M36.5061,17.143096667957305C36.5061,17.143096667957305,35.8717,17.143096667957305,35.8717,17.143096667957305C35.8717,17.152396667957305,35.8722,17.161096667957306,35.8722,17.170396667957306C34.2494,18.614296667957305,32.8555,18.492896667957307,27.6478,18.534396667957306C27.4268,18.535796667957307,27.2127,18.537296667957307,27.0041,18.537796667957306C27.0041,18.480696667957307,27.0041,18.424096667957304,27.0045,18.367596667957304C27.0372,13.404796667957307,25.4401,12.985896667957306,26.2554,12.302296667957306C26.2554,12.290596667957306,26.559,12.043796667957306,26.559,12.032596667957305C26.559,12.032596667957305,27.3581,12.032596667957305,27.3581,12.032596667957305C27.7992,12.032596667957305,28.4538,10.753006667957306,28.4538,10.317536667957306C28.4538,10.023486667957306,28.2906,9.412466667957306,28.0489,9.045756667957306C31.9704,9.238866667957305,35.1676,12.138896667957306,35.7699,15.891796667957307C35.7699,15.891796667957307,36.5061,15.891796667957307,36.5061,15.891796667957307C36.8565,15.891796667957307,37.1405,16.171896667957306,37.1405,16.517496667957307C37.1405,16.862996667957304,36.8565,17.143096667957305,36.5061,17.143096667957305C36.5061,17.143096667957305,36.5061,17.143096667957305,36.5061,17.143096667957305ZM26.5199,10.415556667957306C26.5199,10.846256667957306,26.1695,11.197296667957305,25.7328,11.204096667957305C25.7328,11.204096667957305,24.9456,11.204096667957305,24.9456,11.204096667957305C24.9456,11.215296667957306,24.9461,11.226496667957306,24.9461,11.238196667957306C22.9322,13.057596667957306,21.2015,12.904496667957305,14.7384,12.956196667957306C8.27532,13.007896667957306,6.2322,12.662596667957306,4.48873,11.238196667957306C4.48873,11.226496667957306,4.48922,11.215296667957306,4.48922,11.204096667957305C4.48922,11.204096667957305,3.70204,11.204096667957305,3.70204,11.204096667957305C3.26536,11.197296667957305,2.91497,10.846256667957306,2.91497,10.415556667957306C2.91497,9.984846667957306,3.26536,9.633806667957305,3.70204,9.627036667957306C3.70204,9.627036667957306,4.61481,9.627036667957306,4.61481,9.627036667957306C5.38667,4.7320566679573055,9.61531,0.9888966679573059,14.7177,0.9888966679573059C19.82,0.9888966679573059,24.0452,4.7320566679573055,24.819,9.627036667957306C24.819,9.627036667957306,25.7328,9.627036667957306,25.7328,9.627036667957306C26.1695,9.633806667957305,26.5199,9.984846667957306,26.5199,10.415556667957306C26.5199,10.415556667957306,26.5199,10.415556667957306,26.5199,10.415556667957306ZM17.8496,9.278856667957307C17.8496,7.770666667957306,16.6099,6.548046667957306,15.0806,6.548046667957306C13.5513,6.548046667957306,12.3116,7.770666667957306,12.3116,9.278856667957307C12.3116,10.787036667957306,13.5513,12.009696667957305,15.0806,12.009696667957305C16.6099,12.009696667957305,17.8496,10.787036667957306,17.8496,9.278856667957307C17.8496,9.278856667957307,17.8496,9.278856667957307,17.8496,9.278856667957307ZM0,39.097796667957304C0.333762,33.52209666795731,3.74604,28.778296667957306,8.55667,26.549796667957306C4.76441,23.646796667957307,3.44699,18.579596667957304,5.35502,14.235296667957305C6.98972,15.161296667957306,9.29786,15.399296667957305,14.7384,15.355896667957307C20.2977,15.311496667957305,22.3556,15.418296667957305,24.104,14.290896667957306C25.9727,18.614596667957304,24.6593,23.637096667957305,20.9034,26.530296667957305C25.8228,28.790496667957306,29.2904,33.675696667957304,29.5184,39.396796667957304C29.5426,39.9384966679573,29.0487,39.99069666795731,28.8672,39.998496667957305C25.0687,40.0009966679573,6.24011,39.999996667957305,1.17484,39.998496667957305C0.267009,39.95559666795731,0.0262065,39.48359666795731,0,39.097796667957304C0,39.097796667957304,0,39.097796667957304,0,39.097796667957304ZM31.6461,39.395296667957304C31.4147,33.67429666795731,29.2222,28.801196667957306,24.2281,26.541496667957308C26.1902,25.068796667957304,26.783,22.915296667957307,26.9467,20.442496667957307C27.1737,20.441996667957305,27.4065,20.440596667957305,27.6478,20.438596667957306C32.1272,20.403496667957306,33.7851,20.488296667957307,35.1938,19.593496667957307C36.7011,23.031496667957306,35.6372,27.040096667957307,32.6152,29.308896667957306C36.693,31.153696667957306,39.3752,35.100196667957306,39.556,39.52109666795731C39.5758,39.951196667957305,39.1777,39.992696667957304,39.0313,39.99899666795731C37.8511,39.9994966679573,34.87,39.999996667957305,31.4181,39.999996667957305C31.5709,39.83529666795731,31.6527,39.618396667957306,31.6461,39.395296667957304C31.6461,39.395296667957304,31.6461,39.395296667957304,31.6461,39.395296667957304Z" fill="url(#master_svg0_0_10475)" fill-opacity="1"/></g></g></svg>