<svg xmlns="http://www.w3.org/2000/svg" xmlns:xlink="http://www.w3.org/1999/xlink" fill="none" version="1.1" width="40" height="40" viewBox="0 0 40 40"><defs><linearGradient x1="-0.004193474072962999" y1="-0.0014935662038624287" x2="1.0039637088775635" y2="1.0014935731887817" id="master_svg0_0_9834"><stop offset="0%" stop-color="#80FFFF" stop-opacity="1"/><stop offset="100%" stop-color="#02A7F0" stop-opacity="1"/></linearGradient></defs><g><g style="mix-blend-mode:passthrough"><rect x="0" y="0" width="40" height="40" rx="0" fill="#D8D8D8" fill-opacity="0"/></g><g><path d="M19.6253,1C8.78654,1,0,9.73045,0,20.5C0,31.2696,8.78654,40,19.6253,40C30.464,40,39.2506,31.2696,39.2506,20.5C39.2506,9.73045,30.464,1,19.6253,1C19.6253,1,19.6253,1,19.6253,1ZM21.5024,20.5C21.5024,20.5,28.399,20.5,28.399,20.5C28.399,20.5,10.8678,33.8059,10.8678,33.8059C10.8678,33.8059,17.7644,20.5,17.7644,20.5C17.7644,20.5,10.8678,20.5,10.8678,20.5C10.8678,20.5,28.399,7.19412,28.399,7.19412C28.399,7.19412,21.5024,20.5,21.5024,20.5C21.5024,20.5,21.5024,20.5,21.5024,20.5Z" fill="url(#master_svg0_0_9834)" fill-opacity="1"/></g></g></svg>